<?xml version="1.0" encoding="utf-8" standalone="no"?>
<!DOCTYPE svg PUBLIC "-//W3C//DTD SVG 1.1//EN"
  "http://www.w3.org/Graphics/SVG/1.1/DTD/svg11.dtd">
<svg xmlns:xlink="http://www.w3.org/1999/xlink" width="720pt" height="432pt" viewBox="0 0 720 432" xmlns="http://www.w3.org/2000/svg" version="1.1">
 <metadata>
  <rdf:RDF xmlns:dc="http://purl.org/dc/elements/1.1/" xmlns:cc="http://creativecommons.org/ns#" xmlns:rdf="http://www.w3.org/1999/02/22-rdf-syntax-ns#">
   <cc:Work>
    <dc:type rdf:resource="http://purl.org/dc/dcmitype/StillImage"/>
    <dc:date>2025-03-05T19:45:06.122892</dc:date>
    <dc:format>image/svg+xml</dc:format>
    <dc:creator>
     <cc:Agent>
      <dc:title>Matplotlib v3.10.1, https://matplotlib.org/</dc:title>
     </cc:Agent>
    </dc:creator>
   </cc:Work>
  </rdf:RDF>
 </metadata>
 <defs>
  <style type="text/css">*{stroke-linejoin: round; stroke-linecap: butt}</style>
 </defs>
 <g id="figure_1">
  <g id="patch_1">
   <path d="M 0 432 
L 720 432 
L 720 0 
L 0 0 
z
" style="fill: #ffffff"/>
  </g>
  <g id="axes_1">
   <g id="patch_2">
    <path d="M 40.203542 376.625464 
L 709.2 376.625464 
L 709.2 26.88 
L 40.203542 26.88 
z
" style="fill: #ffffff"/>
   </g>
   <g id="matplotlib.axis_1">
    <g id="xtick_1">
     <g id="line2d_1">
      <path d="M 70.612472 376.625464 
L 70.612472 26.88 
" clip-path="url(#p41f4066519)" style="fill: none; stroke: #b0b0b0; stroke-width: 0.8; stroke-linecap: square"/>
     </g>
     <g id="line2d_2">
      <defs>
       <path id="m9fda3df320" d="M 0 0 
L 0 3.5 
" style="stroke: #000000; stroke-width: 0.8"/>
      </defs>
      <g>
       <use xlink:href="#m9fda3df320" x="70.612472" y="376.625464" style="stroke: #000000; stroke-width: 0.8"/>
      </g>
     </g>
     <g id="text_1">
      <!-- 2025-03-05 -->
      <g transform="translate(19.243021 419.263716) rotate(-30) scale(0.1 -0.1)">
       <defs>
        <path id="DejaVuSans-32" d="M 1228 531 
L 3431 531 
L 3431 0 
L 469 0 
L 469 531 
Q 828 903 1448 1529 
Q 2069 2156 2228 2338 
Q 2531 2678 2651 2914 
Q 2772 3150 2772 3378 
Q 2772 3750 2511 3984 
Q 2250 4219 1831 4219 
Q 1534 4219 1204 4116 
Q 875 4013 500 3803 
L 500 4441 
Q 881 4594 1212 4672 
Q 1544 4750 1819 4750 
Q 2544 4750 2975 4387 
Q 3406 4025 3406 3419 
Q 3406 3131 3298 2873 
Q 3191 2616 2906 2266 
Q 2828 2175 2409 1742 
Q 1991 1309 1228 531 
z
" transform="scale(0.015625)"/>
        <path id="DejaVuSans-30" d="M 2034 4250 
Q 1547 4250 1301 3770 
Q 1056 3291 1056 2328 
Q 1056 1369 1301 889 
Q 1547 409 2034 409 
Q 2525 409 2770 889 
Q 3016 1369 3016 2328 
Q 3016 3291 2770 3770 
Q 2525 4250 2034 4250 
z
M 2034 4750 
Q 2819 4750 3233 4129 
Q 3647 3509 3647 2328 
Q 3647 1150 3233 529 
Q 2819 -91 2034 -91 
Q 1250 -91 836 529 
Q 422 1150 422 2328 
Q 422 3509 836 4129 
Q 1250 4750 2034 4750 
z
" transform="scale(0.015625)"/>
        <path id="DejaVuSans-35" d="M 691 4666 
L 3169 4666 
L 3169 4134 
L 1269 4134 
L 1269 2991 
Q 1406 3038 1543 3061 
Q 1681 3084 1819 3084 
Q 2600 3084 3056 2656 
Q 3513 2228 3513 1497 
Q 3513 744 3044 326 
Q 2575 -91 1722 -91 
Q 1428 -91 1123 -41 
Q 819 9 494 109 
L 494 744 
Q 775 591 1075 516 
Q 1375 441 1709 441 
Q 2250 441 2565 725 
Q 2881 1009 2881 1497 
Q 2881 1984 2565 2268 
Q 2250 2553 1709 2553 
Q 1456 2553 1204 2497 
Q 953 2441 691 2322 
L 691 4666 
z
" transform="scale(0.015625)"/>
        <path id="DejaVuSans-2d" d="M 313 2009 
L 1997 2009 
L 1997 1497 
L 313 1497 
L 313 2009 
z
" transform="scale(0.015625)"/>
        <path id="DejaVuSans-33" d="M 2597 2516 
Q 3050 2419 3304 2112 
Q 3559 1806 3559 1356 
Q 3559 666 3084 287 
Q 2609 -91 1734 -91 
Q 1441 -91 1130 -33 
Q 819 25 488 141 
L 488 750 
Q 750 597 1062 519 
Q 1375 441 1716 441 
Q 2309 441 2620 675 
Q 2931 909 2931 1356 
Q 2931 1769 2642 2001 
Q 2353 2234 1838 2234 
L 1294 2234 
L 1294 2753 
L 1863 2753 
Q 2328 2753 2575 2939 
Q 2822 3125 2822 3475 
Q 2822 3834 2567 4026 
Q 2313 4219 1838 4219 
Q 1578 4219 1281 4162 
Q 984 4106 628 3988 
L 628 4550 
Q 988 4650 1302 4700 
Q 1616 4750 1894 4750 
Q 2613 4750 3031 4423 
Q 3450 4097 3450 3541 
Q 3450 3153 3228 2886 
Q 3006 2619 2597 2516 
z
" transform="scale(0.015625)"/>
       </defs>
       <use xlink:href="#DejaVuSans-32"/>
       <use xlink:href="#DejaVuSans-30" transform="translate(63.623047 0)"/>
       <use xlink:href="#DejaVuSans-32" transform="translate(127.246094 0)"/>
       <use xlink:href="#DejaVuSans-35" transform="translate(190.869141 0)"/>
       <use xlink:href="#DejaVuSans-2d" transform="translate(254.492188 0)"/>
       <use xlink:href="#DejaVuSans-30" transform="translate(290.576172 0)"/>
       <use xlink:href="#DejaVuSans-33" transform="translate(354.199219 0)"/>
       <use xlink:href="#DejaVuSans-2d" transform="translate(417.822266 0)"/>
       <use xlink:href="#DejaVuSans-30" transform="translate(453.90625 0)"/>
       <use xlink:href="#DejaVuSans-35" transform="translate(517.529297 0)"/>
      </g>
     </g>
    </g>
    <g id="xtick_2">
     <g id="line2d_3">
      <path d="M 108.966077 376.625464 
L 108.966077 26.88 
" clip-path="url(#p41f4066519)" style="fill: none; stroke: #b0b0b0; stroke-width: 0.8; stroke-linecap: square"/>
     </g>
     <g id="line2d_4">
      <g>
       <use xlink:href="#m9fda3df320" x="108.966077" y="376.625464" style="stroke: #000000; stroke-width: 0.8"/>
      </g>
     </g>
     <g id="text_2">
      <!-- 2025-03-12 -->
      <g transform="translate(57.596626 419.263716) rotate(-30) scale(0.1 -0.1)">
       <defs>
        <path id="DejaVuSans-31" d="M 794 531 
L 1825 531 
L 1825 4091 
L 703 3866 
L 703 4441 
L 1819 4666 
L 2450 4666 
L 2450 531 
L 3481 531 
L 3481 0 
L 794 0 
L 794 531 
z
" transform="scale(0.015625)"/>
       </defs>
       <use xlink:href="#DejaVuSans-32"/>
       <use xlink:href="#DejaVuSans-30" transform="translate(63.623047 0)"/>
       <use xlink:href="#DejaVuSans-32" transform="translate(127.246094 0)"/>
       <use xlink:href="#DejaVuSans-35" transform="translate(190.869141 0)"/>
       <use xlink:href="#DejaVuSans-2d" transform="translate(254.492188 0)"/>
       <use xlink:href="#DejaVuSans-30" transform="translate(290.576172 0)"/>
       <use xlink:href="#DejaVuSans-33" transform="translate(354.199219 0)"/>
       <use xlink:href="#DejaVuSans-2d" transform="translate(417.822266 0)"/>
       <use xlink:href="#DejaVuSans-31" transform="translate(453.90625 0)"/>
       <use xlink:href="#DejaVuSans-32" transform="translate(517.529297 0)"/>
      </g>
     </g>
    </g>
    <g id="xtick_3">
     <g id="line2d_5">
      <path d="M 147.319683 376.625464 
L 147.319683 26.88 
" clip-path="url(#p41f4066519)" style="fill: none; stroke: #b0b0b0; stroke-width: 0.8; stroke-linecap: square"/>
     </g>
     <g id="line2d_6">
      <g>
       <use xlink:href="#m9fda3df320" x="147.319683" y="376.625464" style="stroke: #000000; stroke-width: 0.8"/>
      </g>
     </g>
     <g id="text_3">
      <!-- 2025-03-19 -->
      <g transform="translate(95.950231 419.263716) rotate(-30) scale(0.1 -0.1)">
       <defs>
        <path id="DejaVuSans-39" d="M 703 97 
L 703 672 
Q 941 559 1184 500 
Q 1428 441 1663 441 
Q 2288 441 2617 861 
Q 2947 1281 2994 2138 
Q 2813 1869 2534 1725 
Q 2256 1581 1919 1581 
Q 1219 1581 811 2004 
Q 403 2428 403 3163 
Q 403 3881 828 4315 
Q 1253 4750 1959 4750 
Q 2769 4750 3195 4129 
Q 3622 3509 3622 2328 
Q 3622 1225 3098 567 
Q 2575 -91 1691 -91 
Q 1453 -91 1209 -44 
Q 966 3 703 97 
z
M 1959 2075 
Q 2384 2075 2632 2365 
Q 2881 2656 2881 3163 
Q 2881 3666 2632 3958 
Q 2384 4250 1959 4250 
Q 1534 4250 1286 3958 
Q 1038 3666 1038 3163 
Q 1038 2656 1286 2365 
Q 1534 2075 1959 2075 
z
" transform="scale(0.015625)"/>
       </defs>
       <use xlink:href="#DejaVuSans-32"/>
       <use xlink:href="#DejaVuSans-30" transform="translate(63.623047 0)"/>
       <use xlink:href="#DejaVuSans-32" transform="translate(127.246094 0)"/>
       <use xlink:href="#DejaVuSans-35" transform="translate(190.869141 0)"/>
       <use xlink:href="#DejaVuSans-2d" transform="translate(254.492188 0)"/>
       <use xlink:href="#DejaVuSans-30" transform="translate(290.576172 0)"/>
       <use xlink:href="#DejaVuSans-33" transform="translate(354.199219 0)"/>
       <use xlink:href="#DejaVuSans-2d" transform="translate(417.822266 0)"/>
       <use xlink:href="#DejaVuSans-31" transform="translate(453.90625 0)"/>
       <use xlink:href="#DejaVuSans-39" transform="translate(517.529297 0)"/>
      </g>
     </g>
    </g>
    <g id="xtick_4">
     <g id="line2d_7">
      <path d="M 185.673288 376.625464 
L 185.673288 26.88 
" clip-path="url(#p41f4066519)" style="fill: none; stroke: #b0b0b0; stroke-width: 0.8; stroke-linecap: square"/>
     </g>
     <g id="line2d_8">
      <g>
       <use xlink:href="#m9fda3df320" x="185.673288" y="376.625464" style="stroke: #000000; stroke-width: 0.8"/>
      </g>
     </g>
     <g id="text_4">
      <!-- 2025-03-26 -->
      <g transform="translate(134.303837 419.263716) rotate(-30) scale(0.1 -0.1)">
       <defs>
        <path id="DejaVuSans-36" d="M 2113 2584 
Q 1688 2584 1439 2293 
Q 1191 2003 1191 1497 
Q 1191 994 1439 701 
Q 1688 409 2113 409 
Q 2538 409 2786 701 
Q 3034 994 3034 1497 
Q 3034 2003 2786 2293 
Q 2538 2584 2113 2584 
z
M 3366 4563 
L 3366 3988 
Q 3128 4100 2886 4159 
Q 2644 4219 2406 4219 
Q 1781 4219 1451 3797 
Q 1122 3375 1075 2522 
Q 1259 2794 1537 2939 
Q 1816 3084 2150 3084 
Q 2853 3084 3261 2657 
Q 3669 2231 3669 1497 
Q 3669 778 3244 343 
Q 2819 -91 2113 -91 
Q 1303 -91 875 529 
Q 447 1150 447 2328 
Q 447 3434 972 4092 
Q 1497 4750 2381 4750 
Q 2619 4750 2861 4703 
Q 3103 4656 3366 4563 
z
" transform="scale(0.015625)"/>
       </defs>
       <use xlink:href="#DejaVuSans-32"/>
       <use xlink:href="#DejaVuSans-30" transform="translate(63.623047 0)"/>
       <use xlink:href="#DejaVuSans-32" transform="translate(127.246094 0)"/>
       <use xlink:href="#DejaVuSans-35" transform="translate(190.869141 0)"/>
       <use xlink:href="#DejaVuSans-2d" transform="translate(254.492188 0)"/>
       <use xlink:href="#DejaVuSans-30" transform="translate(290.576172 0)"/>
       <use xlink:href="#DejaVuSans-33" transform="translate(354.199219 0)"/>
       <use xlink:href="#DejaVuSans-2d" transform="translate(417.822266 0)"/>
       <use xlink:href="#DejaVuSans-32" transform="translate(453.90625 0)"/>
       <use xlink:href="#DejaVuSans-36" transform="translate(517.529297 0)"/>
      </g>
     </g>
    </g>
    <g id="xtick_5">
     <g id="line2d_9">
      <path d="M 224.026893 376.625464 
L 224.026893 26.88 
" clip-path="url(#p41f4066519)" style="fill: none; stroke: #b0b0b0; stroke-width: 0.8; stroke-linecap: square"/>
     </g>
     <g id="line2d_10">
      <g>
       <use xlink:href="#m9fda3df320" x="224.026893" y="376.625464" style="stroke: #000000; stroke-width: 0.8"/>
      </g>
     </g>
     <g id="text_5">
      <!-- 2025-04-02 -->
      <g transform="translate(172.657442 419.263716) rotate(-30) scale(0.1 -0.1)">
       <defs>
        <path id="DejaVuSans-34" d="M 2419 4116 
L 825 1625 
L 2419 1625 
L 2419 4116 
z
M 2253 4666 
L 3047 4666 
L 3047 1625 
L 3713 1625 
L 3713 1100 
L 3047 1100 
L 3047 0 
L 2419 0 
L 2419 1100 
L 313 1100 
L 313 1709 
L 2253 4666 
z
" transform="scale(0.015625)"/>
       </defs>
       <use xlink:href="#DejaVuSans-32"/>
       <use xlink:href="#DejaVuSans-30" transform="translate(63.623047 0)"/>
       <use xlink:href="#DejaVuSans-32" transform="translate(127.246094 0)"/>
       <use xlink:href="#DejaVuSans-35" transform="translate(190.869141 0)"/>
       <use xlink:href="#DejaVuSans-2d" transform="translate(254.492188 0)"/>
       <use xlink:href="#DejaVuSans-30" transform="translate(290.576172 0)"/>
       <use xlink:href="#DejaVuSans-34" transform="translate(354.199219 0)"/>
       <use xlink:href="#DejaVuSans-2d" transform="translate(417.822266 0)"/>
       <use xlink:href="#DejaVuSans-30" transform="translate(453.90625 0)"/>
       <use xlink:href="#DejaVuSans-32" transform="translate(517.529297 0)"/>
      </g>
     </g>
    </g>
    <g id="xtick_6">
     <g id="line2d_11">
      <path d="M 262.380499 376.625464 
L 262.380499 26.88 
" clip-path="url(#p41f4066519)" style="fill: none; stroke: #b0b0b0; stroke-width: 0.8; stroke-linecap: square"/>
     </g>
     <g id="line2d_12">
      <g>
       <use xlink:href="#m9fda3df320" x="262.380499" y="376.625464" style="stroke: #000000; stroke-width: 0.8"/>
      </g>
     </g>
     <g id="text_6">
      <!-- 2025-04-09 -->
      <g transform="translate(211.011047 419.263716) rotate(-30) scale(0.1 -0.1)">
       <use xlink:href="#DejaVuSans-32"/>
       <use xlink:href="#DejaVuSans-30" transform="translate(63.623047 0)"/>
       <use xlink:href="#DejaVuSans-32" transform="translate(127.246094 0)"/>
       <use xlink:href="#DejaVuSans-35" transform="translate(190.869141 0)"/>
       <use xlink:href="#DejaVuSans-2d" transform="translate(254.492188 0)"/>
       <use xlink:href="#DejaVuSans-30" transform="translate(290.576172 0)"/>
       <use xlink:href="#DejaVuSans-34" transform="translate(354.199219 0)"/>
       <use xlink:href="#DejaVuSans-2d" transform="translate(417.822266 0)"/>
       <use xlink:href="#DejaVuSans-30" transform="translate(453.90625 0)"/>
       <use xlink:href="#DejaVuSans-39" transform="translate(517.529297 0)"/>
      </g>
     </g>
    </g>
    <g id="xtick_7">
     <g id="line2d_13">
      <path d="M 300.734104 376.625464 
L 300.734104 26.88 
" clip-path="url(#p41f4066519)" style="fill: none; stroke: #b0b0b0; stroke-width: 0.8; stroke-linecap: square"/>
     </g>
     <g id="line2d_14">
      <g>
       <use xlink:href="#m9fda3df320" x="300.734104" y="376.625464" style="stroke: #000000; stroke-width: 0.8"/>
      </g>
     </g>
     <g id="text_7">
      <!-- 2025-04-16 -->
      <g transform="translate(249.364652 419.263716) rotate(-30) scale(0.1 -0.1)">
       <use xlink:href="#DejaVuSans-32"/>
       <use xlink:href="#DejaVuSans-30" transform="translate(63.623047 0)"/>
       <use xlink:href="#DejaVuSans-32" transform="translate(127.246094 0)"/>
       <use xlink:href="#DejaVuSans-35" transform="translate(190.869141 0)"/>
       <use xlink:href="#DejaVuSans-2d" transform="translate(254.492188 0)"/>
       <use xlink:href="#DejaVuSans-30" transform="translate(290.576172 0)"/>
       <use xlink:href="#DejaVuSans-34" transform="translate(354.199219 0)"/>
       <use xlink:href="#DejaVuSans-2d" transform="translate(417.822266 0)"/>
       <use xlink:href="#DejaVuSans-31" transform="translate(453.90625 0)"/>
       <use xlink:href="#DejaVuSans-36" transform="translate(517.529297 0)"/>
      </g>
     </g>
    </g>
    <g id="xtick_8">
     <g id="line2d_15">
      <path d="M 339.087709 376.625464 
L 339.087709 26.88 
" clip-path="url(#p41f4066519)" style="fill: none; stroke: #b0b0b0; stroke-width: 0.8; stroke-linecap: square"/>
     </g>
     <g id="line2d_16">
      <g>
       <use xlink:href="#m9fda3df320" x="339.087709" y="376.625464" style="stroke: #000000; stroke-width: 0.8"/>
      </g>
     </g>
     <g id="text_8">
      <!-- 2025-04-23 -->
      <g transform="translate(287.718258 419.263716) rotate(-30) scale(0.1 -0.1)">
       <use xlink:href="#DejaVuSans-32"/>
       <use xlink:href="#DejaVuSans-30" transform="translate(63.623047 0)"/>
       <use xlink:href="#DejaVuSans-32" transform="translate(127.246094 0)"/>
       <use xlink:href="#DejaVuSans-35" transform="translate(190.869141 0)"/>
       <use xlink:href="#DejaVuSans-2d" transform="translate(254.492188 0)"/>
       <use xlink:href="#DejaVuSans-30" transform="translate(290.576172 0)"/>
       <use xlink:href="#DejaVuSans-34" transform="translate(354.199219 0)"/>
       <use xlink:href="#DejaVuSans-2d" transform="translate(417.822266 0)"/>
       <use xlink:href="#DejaVuSans-32" transform="translate(453.90625 0)"/>
       <use xlink:href="#DejaVuSans-33" transform="translate(517.529297 0)"/>
      </g>
     </g>
    </g>
    <g id="xtick_9">
     <g id="line2d_17">
      <path d="M 377.441314 376.625464 
L 377.441314 26.88 
" clip-path="url(#p41f4066519)" style="fill: none; stroke: #b0b0b0; stroke-width: 0.8; stroke-linecap: square"/>
     </g>
     <g id="line2d_18">
      <g>
       <use xlink:href="#m9fda3df320" x="377.441314" y="376.625464" style="stroke: #000000; stroke-width: 0.8"/>
      </g>
     </g>
     <g id="text_9">
      <!-- 2025-04-30 -->
      <g transform="translate(326.071863 419.263716) rotate(-30) scale(0.1 -0.1)">
       <use xlink:href="#DejaVuSans-32"/>
       <use xlink:href="#DejaVuSans-30" transform="translate(63.623047 0)"/>
       <use xlink:href="#DejaVuSans-32" transform="translate(127.246094 0)"/>
       <use xlink:href="#DejaVuSans-35" transform="translate(190.869141 0)"/>
       <use xlink:href="#DejaVuSans-2d" transform="translate(254.492188 0)"/>
       <use xlink:href="#DejaVuSans-30" transform="translate(290.576172 0)"/>
       <use xlink:href="#DejaVuSans-34" transform="translate(354.199219 0)"/>
       <use xlink:href="#DejaVuSans-2d" transform="translate(417.822266 0)"/>
       <use xlink:href="#DejaVuSans-33" transform="translate(453.90625 0)"/>
       <use xlink:href="#DejaVuSans-30" transform="translate(517.529297 0)"/>
      </g>
     </g>
    </g>
    <g id="xtick_10">
     <g id="line2d_19">
      <path d="M 415.79492 376.625464 
L 415.79492 26.88 
" clip-path="url(#p41f4066519)" style="fill: none; stroke: #b0b0b0; stroke-width: 0.8; stroke-linecap: square"/>
     </g>
     <g id="line2d_20">
      <g>
       <use xlink:href="#m9fda3df320" x="415.79492" y="376.625464" style="stroke: #000000; stroke-width: 0.8"/>
      </g>
     </g>
     <g id="text_10">
      <!-- 2025-05-07 -->
      <g transform="translate(364.425468 419.263716) rotate(-30) scale(0.1 -0.1)">
       <defs>
        <path id="DejaVuSans-37" d="M 525 4666 
L 3525 4666 
L 3525 4397 
L 1831 0 
L 1172 0 
L 2766 4134 
L 525 4134 
L 525 4666 
z
" transform="scale(0.015625)"/>
       </defs>
       <use xlink:href="#DejaVuSans-32"/>
       <use xlink:href="#DejaVuSans-30" transform="translate(63.623047 0)"/>
       <use xlink:href="#DejaVuSans-32" transform="translate(127.246094 0)"/>
       <use xlink:href="#DejaVuSans-35" transform="translate(190.869141 0)"/>
       <use xlink:href="#DejaVuSans-2d" transform="translate(254.492188 0)"/>
       <use xlink:href="#DejaVuSans-30" transform="translate(290.576172 0)"/>
       <use xlink:href="#DejaVuSans-35" transform="translate(354.199219 0)"/>
       <use xlink:href="#DejaVuSans-2d" transform="translate(417.822266 0)"/>
       <use xlink:href="#DejaVuSans-30" transform="translate(453.90625 0)"/>
       <use xlink:href="#DejaVuSans-37" transform="translate(517.529297 0)"/>
      </g>
     </g>
    </g>
    <g id="xtick_11">
     <g id="line2d_21">
      <path d="M 454.148525 376.625464 
L 454.148525 26.88 
" clip-path="url(#p41f4066519)" style="fill: none; stroke: #b0b0b0; stroke-width: 0.8; stroke-linecap: square"/>
     </g>
     <g id="line2d_22">
      <g>
       <use xlink:href="#m9fda3df320" x="454.148525" y="376.625464" style="stroke: #000000; stroke-width: 0.8"/>
      </g>
     </g>
     <g id="text_11">
      <!-- 2025-05-14 -->
      <g transform="translate(402.779074 419.263716) rotate(-30) scale(0.1 -0.1)">
       <use xlink:href="#DejaVuSans-32"/>
       <use xlink:href="#DejaVuSans-30" transform="translate(63.623047 0)"/>
       <use xlink:href="#DejaVuSans-32" transform="translate(127.246094 0)"/>
       <use xlink:href="#DejaVuSans-35" transform="translate(190.869141 0)"/>
       <use xlink:href="#DejaVuSans-2d" transform="translate(254.492188 0)"/>
       <use xlink:href="#DejaVuSans-30" transform="translate(290.576172 0)"/>
       <use xlink:href="#DejaVuSans-35" transform="translate(354.199219 0)"/>
       <use xlink:href="#DejaVuSans-2d" transform="translate(417.822266 0)"/>
       <use xlink:href="#DejaVuSans-31" transform="translate(453.90625 0)"/>
       <use xlink:href="#DejaVuSans-34" transform="translate(517.529297 0)"/>
      </g>
     </g>
    </g>
    <g id="xtick_12">
     <g id="line2d_23">
      <path d="M 492.50213 376.625464 
L 492.50213 26.88 
" clip-path="url(#p41f4066519)" style="fill: none; stroke: #b0b0b0; stroke-width: 0.8; stroke-linecap: square"/>
     </g>
     <g id="line2d_24">
      <g>
       <use xlink:href="#m9fda3df320" x="492.50213" y="376.625464" style="stroke: #000000; stroke-width: 0.8"/>
      </g>
     </g>
     <g id="text_12">
      <!-- 2025-05-21 -->
      <g transform="translate(441.132679 419.263716) rotate(-30) scale(0.1 -0.1)">
       <use xlink:href="#DejaVuSans-32"/>
       <use xlink:href="#DejaVuSans-30" transform="translate(63.623047 0)"/>
       <use xlink:href="#DejaVuSans-32" transform="translate(127.246094 0)"/>
       <use xlink:href="#DejaVuSans-35" transform="translate(190.869141 0)"/>
       <use xlink:href="#DejaVuSans-2d" transform="translate(254.492188 0)"/>
       <use xlink:href="#DejaVuSans-30" transform="translate(290.576172 0)"/>
       <use xlink:href="#DejaVuSans-35" transform="translate(354.199219 0)"/>
       <use xlink:href="#DejaVuSans-2d" transform="translate(417.822266 0)"/>
       <use xlink:href="#DejaVuSans-32" transform="translate(453.90625 0)"/>
       <use xlink:href="#DejaVuSans-31" transform="translate(517.529297 0)"/>
      </g>
     </g>
    </g>
    <g id="xtick_13">
     <g id="line2d_25">
      <path d="M 530.855735 376.625464 
L 530.855735 26.88 
" clip-path="url(#p41f4066519)" style="fill: none; stroke: #b0b0b0; stroke-width: 0.8; stroke-linecap: square"/>
     </g>
     <g id="line2d_26">
      <g>
       <use xlink:href="#m9fda3df320" x="530.855735" y="376.625464" style="stroke: #000000; stroke-width: 0.8"/>
      </g>
     </g>
     <g id="text_13">
      <!-- 2025-05-28 -->
      <g transform="translate(479.486284 419.263716) rotate(-30) scale(0.1 -0.1)">
       <defs>
        <path id="DejaVuSans-38" d="M 2034 2216 
Q 1584 2216 1326 1975 
Q 1069 1734 1069 1313 
Q 1069 891 1326 650 
Q 1584 409 2034 409 
Q 2484 409 2743 651 
Q 3003 894 3003 1313 
Q 3003 1734 2745 1975 
Q 2488 2216 2034 2216 
z
M 1403 2484 
Q 997 2584 770 2862 
Q 544 3141 544 3541 
Q 544 4100 942 4425 
Q 1341 4750 2034 4750 
Q 2731 4750 3128 4425 
Q 3525 4100 3525 3541 
Q 3525 3141 3298 2862 
Q 3072 2584 2669 2484 
Q 3125 2378 3379 2068 
Q 3634 1759 3634 1313 
Q 3634 634 3220 271 
Q 2806 -91 2034 -91 
Q 1263 -91 848 271 
Q 434 634 434 1313 
Q 434 1759 690 2068 
Q 947 2378 1403 2484 
z
M 1172 3481 
Q 1172 3119 1398 2916 
Q 1625 2713 2034 2713 
Q 2441 2713 2670 2916 
Q 2900 3119 2900 3481 
Q 2900 3844 2670 4047 
Q 2441 4250 2034 4250 
Q 1625 4250 1398 4047 
Q 1172 3844 1172 3481 
z
" transform="scale(0.015625)"/>
       </defs>
       <use xlink:href="#DejaVuSans-32"/>
       <use xlink:href="#DejaVuSans-30" transform="translate(63.623047 0)"/>
       <use xlink:href="#DejaVuSans-32" transform="translate(127.246094 0)"/>
       <use xlink:href="#DejaVuSans-35" transform="translate(190.869141 0)"/>
       <use xlink:href="#DejaVuSans-2d" transform="translate(254.492188 0)"/>
       <use xlink:href="#DejaVuSans-30" transform="translate(290.576172 0)"/>
       <use xlink:href="#DejaVuSans-35" transform="translate(354.199219 0)"/>
       <use xlink:href="#DejaVuSans-2d" transform="translate(417.822266 0)"/>
       <use xlink:href="#DejaVuSans-32" transform="translate(453.90625 0)"/>
       <use xlink:href="#DejaVuSans-38" transform="translate(517.529297 0)"/>
      </g>
     </g>
    </g>
    <g id="xtick_14">
     <g id="line2d_27">
      <path d="M 569.209341 376.625464 
L 569.209341 26.88 
" clip-path="url(#p41f4066519)" style="fill: none; stroke: #b0b0b0; stroke-width: 0.8; stroke-linecap: square"/>
     </g>
     <g id="line2d_28">
      <g>
       <use xlink:href="#m9fda3df320" x="569.209341" y="376.625464" style="stroke: #000000; stroke-width: 0.8"/>
      </g>
     </g>
     <g id="text_14">
      <!-- 2025-06-04 -->
      <g transform="translate(517.839889 419.263716) rotate(-30) scale(0.1 -0.1)">
       <use xlink:href="#DejaVuSans-32"/>
       <use xlink:href="#DejaVuSans-30" transform="translate(63.623047 0)"/>
       <use xlink:href="#DejaVuSans-32" transform="translate(127.246094 0)"/>
       <use xlink:href="#DejaVuSans-35" transform="translate(190.869141 0)"/>
       <use xlink:href="#DejaVuSans-2d" transform="translate(254.492188 0)"/>
       <use xlink:href="#DejaVuSans-30" transform="translate(290.576172 0)"/>
       <use xlink:href="#DejaVuSans-36" transform="translate(354.199219 0)"/>
       <use xlink:href="#DejaVuSans-2d" transform="translate(417.822266 0)"/>
       <use xlink:href="#DejaVuSans-30" transform="translate(453.90625 0)"/>
       <use xlink:href="#DejaVuSans-34" transform="translate(517.529297 0)"/>
      </g>
     </g>
    </g>
    <g id="xtick_15">
     <g id="line2d_29">
      <path d="M 607.562946 376.625464 
L 607.562946 26.88 
" clip-path="url(#p41f4066519)" style="fill: none; stroke: #b0b0b0; stroke-width: 0.8; stroke-linecap: square"/>
     </g>
     <g id="line2d_30">
      <g>
       <use xlink:href="#m9fda3df320" x="607.562946" y="376.625464" style="stroke: #000000; stroke-width: 0.8"/>
      </g>
     </g>
     <g id="text_15">
      <!-- 2025-06-11 -->
      <g transform="translate(556.193495 419.263716) rotate(-30) scale(0.1 -0.1)">
       <use xlink:href="#DejaVuSans-32"/>
       <use xlink:href="#DejaVuSans-30" transform="translate(63.623047 0)"/>
       <use xlink:href="#DejaVuSans-32" transform="translate(127.246094 0)"/>
       <use xlink:href="#DejaVuSans-35" transform="translate(190.869141 0)"/>
       <use xlink:href="#DejaVuSans-2d" transform="translate(254.492188 0)"/>
       <use xlink:href="#DejaVuSans-30" transform="translate(290.576172 0)"/>
       <use xlink:href="#DejaVuSans-36" transform="translate(354.199219 0)"/>
       <use xlink:href="#DejaVuSans-2d" transform="translate(417.822266 0)"/>
       <use xlink:href="#DejaVuSans-31" transform="translate(453.90625 0)"/>
       <use xlink:href="#DejaVuSans-31" transform="translate(517.529297 0)"/>
      </g>
     </g>
    </g>
    <g id="xtick_16">
     <g id="line2d_31">
      <path d="M 645.916551 376.625464 
L 645.916551 26.88 
" clip-path="url(#p41f4066519)" style="fill: none; stroke: #b0b0b0; stroke-width: 0.8; stroke-linecap: square"/>
     </g>
     <g id="line2d_32">
      <g>
       <use xlink:href="#m9fda3df320" x="645.916551" y="376.625464" style="stroke: #000000; stroke-width: 0.8"/>
      </g>
     </g>
     <g id="text_16">
      <!-- 2025-06-18 -->
      <g transform="translate(594.5471 419.263716) rotate(-30) scale(0.1 -0.1)">
       <use xlink:href="#DejaVuSans-32"/>
       <use xlink:href="#DejaVuSans-30" transform="translate(63.623047 0)"/>
       <use xlink:href="#DejaVuSans-32" transform="translate(127.246094 0)"/>
       <use xlink:href="#DejaVuSans-35" transform="translate(190.869141 0)"/>
       <use xlink:href="#DejaVuSans-2d" transform="translate(254.492188 0)"/>
       <use xlink:href="#DejaVuSans-30" transform="translate(290.576172 0)"/>
       <use xlink:href="#DejaVuSans-36" transform="translate(354.199219 0)"/>
       <use xlink:href="#DejaVuSans-2d" transform="translate(417.822266 0)"/>
       <use xlink:href="#DejaVuSans-31" transform="translate(453.90625 0)"/>
       <use xlink:href="#DejaVuSans-38" transform="translate(517.529297 0)"/>
      </g>
     </g>
    </g>
   </g>
   <g id="matplotlib.axis_2">
    <g id="ytick_1">
     <g id="line2d_33">
      <path d="M 40.203542 360.727943 
L 709.2 360.727943 
" clip-path="url(#p41f4066519)" style="fill: none; stroke: #b0b0b0; stroke-width: 0.8; stroke-linecap: square"/>
     </g>
     <g id="line2d_34">
      <defs>
       <path id="m1a7f434305" d="M 0 0 
L -3.5 0 
" style="stroke: #000000; stroke-width: 0.8"/>
      </defs>
      <g>
       <use xlink:href="#m1a7f434305" x="40.203542" y="360.727943" style="stroke: #000000; stroke-width: 0.8"/>
      </g>
     </g>
     <g id="text_17">
      <!-- 0 -->
      <g transform="translate(26.841042 364.527162) scale(0.1 -0.1)">
       <use xlink:href="#DejaVuSans-30"/>
      </g>
     </g>
    </g>
    <g id="ytick_2">
     <g id="line2d_35">
      <path d="M 40.203542 315.045411 
L 709.2 315.045411 
" clip-path="url(#p41f4066519)" style="fill: none; stroke: #b0b0b0; stroke-width: 0.8; stroke-linecap: square"/>
     </g>
     <g id="line2d_36">
      <g>
       <use xlink:href="#m1a7f434305" x="40.203542" y="315.045411" style="stroke: #000000; stroke-width: 0.8"/>
      </g>
     </g>
     <g id="text_18">
      <!-- 50 -->
      <g transform="translate(20.478542 318.84463) scale(0.1 -0.1)">
       <use xlink:href="#DejaVuSans-35"/>
       <use xlink:href="#DejaVuSans-30" transform="translate(63.623047 0)"/>
      </g>
     </g>
    </g>
    <g id="ytick_3">
     <g id="line2d_37">
      <path d="M 40.203542 269.362879 
L 709.2 269.362879 
" clip-path="url(#p41f4066519)" style="fill: none; stroke: #b0b0b0; stroke-width: 0.8; stroke-linecap: square"/>
     </g>
     <g id="line2d_38">
      <g>
       <use xlink:href="#m1a7f434305" x="40.203542" y="269.362879" style="stroke: #000000; stroke-width: 0.8"/>
      </g>
     </g>
     <g id="text_19">
      <!-- 100 -->
      <g transform="translate(14.116042 273.162098) scale(0.1 -0.1)">
       <use xlink:href="#DejaVuSans-31"/>
       <use xlink:href="#DejaVuSans-30" transform="translate(63.623047 0)"/>
       <use xlink:href="#DejaVuSans-30" transform="translate(127.246094 0)"/>
      </g>
     </g>
    </g>
    <g id="ytick_4">
     <g id="line2d_39">
      <path d="M 40.203542 223.680347 
L 709.2 223.680347 
" clip-path="url(#p41f4066519)" style="fill: none; stroke: #b0b0b0; stroke-width: 0.8; stroke-linecap: square"/>
     </g>
     <g id="line2d_40">
      <g>
       <use xlink:href="#m1a7f434305" x="40.203542" y="223.680347" style="stroke: #000000; stroke-width: 0.8"/>
      </g>
     </g>
     <g id="text_20">
      <!-- 150 -->
      <g transform="translate(14.116042 227.479566) scale(0.1 -0.1)">
       <use xlink:href="#DejaVuSans-31"/>
       <use xlink:href="#DejaVuSans-35" transform="translate(63.623047 0)"/>
       <use xlink:href="#DejaVuSans-30" transform="translate(127.246094 0)"/>
      </g>
     </g>
    </g>
    <g id="ytick_5">
     <g id="line2d_41">
      <path d="M 40.203542 177.997815 
L 709.2 177.997815 
" clip-path="url(#p41f4066519)" style="fill: none; stroke: #b0b0b0; stroke-width: 0.8; stroke-linecap: square"/>
     </g>
     <g id="line2d_42">
      <g>
       <use xlink:href="#m1a7f434305" x="40.203542" y="177.997815" style="stroke: #000000; stroke-width: 0.8"/>
      </g>
     </g>
     <g id="text_21">
      <!-- 200 -->
      <g transform="translate(14.116042 181.797034) scale(0.1 -0.1)">
       <use xlink:href="#DejaVuSans-32"/>
       <use xlink:href="#DejaVuSans-30" transform="translate(63.623047 0)"/>
       <use xlink:href="#DejaVuSans-30" transform="translate(127.246094 0)"/>
      </g>
     </g>
    </g>
    <g id="ytick_6">
     <g id="line2d_43">
      <path d="M 40.203542 132.315284 
L 709.2 132.315284 
" clip-path="url(#p41f4066519)" style="fill: none; stroke: #b0b0b0; stroke-width: 0.8; stroke-linecap: square"/>
     </g>
     <g id="line2d_44">
      <g>
       <use xlink:href="#m1a7f434305" x="40.203542" y="132.315284" style="stroke: #000000; stroke-width: 0.8"/>
      </g>
     </g>
     <g id="text_22">
      <!-- 250 -->
      <g transform="translate(14.116042 136.114502) scale(0.1 -0.1)">
       <use xlink:href="#DejaVuSans-32"/>
       <use xlink:href="#DejaVuSans-35" transform="translate(63.623047 0)"/>
       <use xlink:href="#DejaVuSans-30" transform="translate(127.246094 0)"/>
      </g>
     </g>
    </g>
    <g id="ytick_7">
     <g id="line2d_45">
      <path d="M 40.203542 86.632752 
L 709.2 86.632752 
" clip-path="url(#p41f4066519)" style="fill: none; stroke: #b0b0b0; stroke-width: 0.8; stroke-linecap: square"/>
     </g>
     <g id="line2d_46">
      <g>
       <use xlink:href="#m1a7f434305" x="40.203542" y="86.632752" style="stroke: #000000; stroke-width: 0.8"/>
      </g>
     </g>
     <g id="text_23">
      <!-- 300 -->
      <g transform="translate(14.116042 90.43197) scale(0.1 -0.1)">
       <use xlink:href="#DejaVuSans-33"/>
       <use xlink:href="#DejaVuSans-30" transform="translate(63.623047 0)"/>
       <use xlink:href="#DejaVuSans-30" transform="translate(127.246094 0)"/>
      </g>
     </g>
    </g>
    <g id="ytick_8">
     <g id="line2d_47">
      <path d="M 40.203542 40.95022 
L 709.2 40.95022 
" clip-path="url(#p41f4066519)" style="fill: none; stroke: #b0b0b0; stroke-width: 0.8; stroke-linecap: square"/>
     </g>
     <g id="line2d_48">
      <g>
       <use xlink:href="#m1a7f434305" x="40.203542" y="40.95022" style="stroke: #000000; stroke-width: 0.8"/>
      </g>
     </g>
     <g id="text_24">
      <!-- 350 -->
      <g transform="translate(14.116042 44.749439) scale(0.1 -0.1)">
       <use xlink:href="#DejaVuSans-33"/>
       <use xlink:href="#DejaVuSans-35" transform="translate(63.623047 0)"/>
       <use xlink:href="#DejaVuSans-30" transform="translate(127.246094 0)"/>
      </g>
     </g>
    </g>
   </g>
   <g id="line2d_49">
    <path d="M 70.612472 294.031446 
L 76.091559 294.816111 
L 81.570645 295.600776 
L 87.049732 296.38544 
L 92.528818 297.170105 
L 98.007905 297.95477 
L 103.486991 298.739434 
L 108.966077 299.524099 
L 114.445164 300.308764 
L 119.92425 301.093428 
L 125.403337 301.878093 
L 130.882423 302.662758 
L 136.36151 303.447422 
L 141.840596 304.232087 
L 147.319683 305.016752 
L 152.798769 305.801416 
L 158.277856 306.586081 
L 163.756942 307.370746 
L 169.236029 308.15541 
L 174.715115 308.940075 
L 180.194202 309.72474 
L 185.673288 310.509404 
L 191.152375 311.294069 
L 196.631461 312.078734 
L 202.110547 312.863398 
L 207.589634 313.648063 
L 213.06872 314.432728 
L 218.547807 315.217392 
L 224.026893 316.002057 
L 229.50598 316.786722 
L 234.985066 317.571386 
L 240.464153 318.356051 
L 245.943239 319.140716 
L 251.422326 319.92538 
L 256.901412 320.710045 
L 262.380499 321.49471 
L 267.859585 322.279374 
L 273.338672 323.064039 
L 278.817758 323.848704 
L 284.296844 324.633368 
L 289.775931 325.418033 
L 295.255017 326.202698 
L 300.734104 326.987362 
L 306.21319 327.772027 
L 311.692277 328.556692 
L 317.171363 329.341356 
L 322.65045 330.126021 
L 328.129536 330.910686 
L 333.608623 331.69535 
L 339.087709 332.480015 
L 344.566796 333.26468 
L 350.045882 334.049344 
L 355.524969 334.834009 
L 361.004055 335.618674 
L 366.483141 336.403338 
L 371.962228 337.188003 
L 377.441314 337.972668 
L 382.920401 338.757332 
L 388.399487 339.541997 
L 393.878574 340.326662 
L 399.35766 341.111326 
L 404.836747 341.895991 
L 410.315833 342.680656 
L 415.79492 343.46532 
L 421.274006 344.249985 
L 426.753093 345.03465 
L 432.232179 345.819314 
L 437.711266 346.603979 
L 443.190352 347.388644 
L 448.669438 348.173308 
L 454.148525 348.957973 
L 459.627611 349.742638 
L 465.106698 350.527302 
L 470.585784 351.311967 
L 476.064871 352.096632 
L 481.543957 352.881296 
L 487.023044 353.665961 
L 492.50213 354.450626 
L 497.981217 355.23529 
L 503.460303 356.019955 
L 508.93939 356.80462 
L 514.418476 357.589284 
L 519.897563 358.373949 
L 525.376649 359.158614 
L 530.855735 359.943278 
L 536.334822 360.727943 
" clip-path="url(#p41f4066519)" style="fill: none; stroke-dasharray: 1.5,2.475; stroke-dashoffset: 0; stroke: #0000ff; stroke-width: 1.5"/>
   </g>
   <g id="line2d_50">
    <path d="M 70.612472 294.031446 
L 76.091559 295.075618 
L 81.570645 296.119791 
L 87.049732 297.163963 
L 92.528818 298.208135 
L 98.007905 299.252307 
L 103.486991 300.296479 
L 108.966077 301.340651 
L 114.445164 302.384824 
L 119.92425 303.428996 
L 125.403337 304.473168 
L 130.882423 305.51734 
L 136.36151 306.561512 
L 141.840596 307.605684 
L 147.319683 308.649857 
L 152.798769 309.694029 
L 158.277856 310.738201 
L 163.756942 311.782373 
L 169.236029 312.826545 
L 174.715115 313.870717 
L 180.194202 314.914889 
L 185.673288 315.959062 
L 191.152375 317.003234 
L 196.631461 318.047406 
L 202.110547 319.091578 
L 207.589634 320.13575 
L 213.06872 321.179922 
L 218.547807 322.224095 
L 224.026893 323.268267 
L 229.50598 324.312439 
L 234.985066 325.356611 
L 240.464153 326.400783 
L 245.943239 327.444955 
L 251.422326 328.489128 
L 256.901412 329.5333 
L 262.380499 330.577472 
L 267.859585 331.621644 
L 273.338672 332.665816 
L 278.817758 333.709988 
L 284.296844 334.75416 
L 289.775931 335.798333 
L 295.255017 336.842505 
L 300.734104 337.886677 
L 306.21319 338.930849 
L 311.692277 339.975021 
L 317.171363 341.019193 
L 322.65045 342.063366 
L 328.129536 343.107538 
L 333.608623 344.15171 
L 339.087709 345.195882 
L 344.566796 346.240054 
L 350.045882 347.284226 
L 355.524969 348.328398 
L 361.004055 349.372571 
L 366.483141 350.416743 
L 371.962228 351.460915 
L 377.441314 352.505087 
L 382.920401 353.549259 
L 388.399487 354.593431 
L 393.878574 355.637604 
L 399.35766 356.681776 
L 404.836747 357.725948 
L 410.315833 358.77012 
L 415.79492 359.814292 
L 421.274006 360.727943 
" clip-path="url(#p41f4066519)" style="fill: none; stroke: #00008b; stroke-width: 1.5; stroke-linecap: square"/>
   </g>
   <g id="line2d_51">
    <path d="M 70.612472 42.777521 
L 76.091559 46.518114 
L 81.570645 50.258707 
L 87.049732 53.999301 
L 92.528818 57.739894 
L 98.007905 61.480487 
L 103.486991 65.22108 
L 108.966077 68.961673 
L 114.445164 72.702267 
L 119.92425 76.44286 
L 125.403337 80.183453 
L 130.882423 83.924046 
L 136.36151 87.664639 
L 141.840596 91.405233 
L 147.319683 95.145826 
L 152.798769 98.886419 
L 158.277856 102.627012 
L 163.756942 106.367605 
L 169.236029 110.108199 
L 174.715115 113.848792 
L 180.194202 117.589385 
L 185.673288 121.329978 
L 191.152375 125.070571 
L 196.631461 128.811165 
L 202.110547 132.551758 
L 207.589634 136.292351 
L 213.06872 140.032944 
L 218.547807 143.773537 
L 224.026893 147.514131 
L 229.50598 151.254724 
L 234.985066 154.995317 
L 240.464153 158.73591 
L 245.943239 162.476503 
L 251.422326 166.217097 
L 256.901412 169.95769 
L 262.380499 173.698283 
L 267.859585 177.438876 
L 273.338672 181.179469 
L 278.817758 184.920063 
L 284.296844 188.660656 
L 289.775931 192.401249 
L 295.255017 196.141842 
L 300.734104 199.882435 
L 306.21319 203.623029 
L 311.692277 207.363622 
L 317.171363 211.104215 
L 322.65045 214.844808 
L 328.129536 218.585401 
L 333.608623 222.325995 
L 339.087709 226.066588 
L 344.566796 229.807181 
L 350.045882 233.547774 
L 355.524969 237.288367 
L 361.004055 241.028961 
L 366.483141 244.769554 
L 371.962228 248.510147 
L 377.441314 252.25074 
L 382.920401 255.991333 
L 388.399487 259.731927 
L 393.878574 263.47252 
L 399.35766 267.213113 
L 404.836747 270.953706 
L 410.315833 274.694299 
L 415.79492 278.434893 
L 421.274006 282.175486 
L 426.753093 285.916079 
L 432.232179 289.656672 
L 437.711266 293.397265 
L 443.190352 297.137858 
L 448.669438 300.878452 
L 454.148525 304.619045 
L 459.627611 308.359638 
L 465.106698 312.100231 
L 470.585784 315.840824 
L 476.064871 319.581418 
L 481.543957 323.322011 
L 487.023044 327.062604 
L 492.50213 330.803197 
L 497.981217 334.54379 
L 503.460303 338.284384 
L 508.93939 342.024977 
L 514.418476 345.76557 
L 519.897563 349.506163 
L 525.376649 353.246756 
L 530.855735 356.98735 
L 536.334822 360.727943 
" clip-path="url(#p41f4066519)" style="fill: none; stroke-dasharray: 1.5,2.475; stroke-dashoffset: 0; stroke: #ff0000; stroke-width: 1.5"/>
   </g>
   <g id="line2d_52">
    <path d="M 70.612472 42.777521 
L 76.091559 45.648995 
L 81.570645 48.520468 
L 87.049732 51.391941 
L 92.528818 54.263415 
L 98.007905 57.134888 
L 103.486991 60.006362 
L 108.966077 62.877835 
L 114.445164 65.749309 
L 119.92425 68.620782 
L 125.403337 71.492255 
L 130.882423 74.363729 
L 136.36151 77.235202 
L 141.840596 80.106676 
L 147.319683 82.978149 
L 152.798769 85.849623 
L 158.277856 88.721096 
L 163.756942 91.592569 
L 169.236029 94.464043 
L 174.715115 97.335516 
L 180.194202 100.20699 
L 185.673288 103.078463 
L 191.152375 105.949937 
L 196.631461 108.82141 
L 202.110547 111.692883 
L 207.589634 114.564357 
L 213.06872 117.43583 
L 218.547807 120.307304 
L 224.026893 123.178777 
L 229.50598 126.050251 
L 234.985066 128.921724 
L 240.464153 131.793197 
L 245.943239 134.664671 
L 251.422326 137.536144 
L 256.901412 140.407618 
L 262.380499 143.279091 
L 267.859585 146.150565 
L 273.338672 149.022038 
L 278.817758 151.893511 
L 284.296844 154.764985 
L 289.775931 157.636458 
L 295.255017 160.507932 
L 300.734104 163.379405 
L 306.21319 166.250879 
L 311.692277 169.122352 
L 317.171363 171.993825 
L 322.65045 174.865299 
L 328.129536 177.736772 
L 333.608623 180.608246 
L 339.087709 183.479719 
L 344.566796 186.351193 
L 350.045882 189.222666 
L 355.524969 192.09414 
L 361.004055 194.965613 
L 366.483141 197.837086 
L 371.962228 200.70856 
L 377.441314 203.580033 
L 382.920401 206.451507 
L 388.399487 209.32298 
L 393.878574 212.194454 
L 399.35766 215.065927 
L 404.836747 217.9374 
L 410.315833 220.808874 
L 415.79492 223.680347 
L 421.274006 226.551821 
L 426.753093 229.423294 
L 432.232179 232.294768 
L 437.711266 235.166241 
L 443.190352 238.037714 
L 448.669438 240.909188 
L 454.148525 243.780661 
L 459.627611 246.652135 
L 465.106698 249.523608 
L 470.585784 252.395082 
L 476.064871 255.266555 
L 481.543957 258.138028 
L 487.023044 261.009502 
L 492.50213 263.880975 
L 497.981217 266.752449 
L 503.460303 269.623922 
L 508.93939 272.495396 
L 514.418476 275.366869 
L 519.897563 278.238342 
L 525.376649 281.109816 
L 530.855735 283.981289 
L 536.334822 286.852763 
L 541.813908 289.724236 
L 547.292995 292.59571 
L 552.772081 295.467183 
L 558.251168 298.338656 
L 563.730254 301.21013 
L 569.209341 304.081603 
L 574.688427 306.953077 
L 580.167514 309.82455 
L 585.6466 312.696024 
L 591.125687 315.567497 
L 596.604773 318.43897 
L 602.08386 321.310444 
L 607.562946 324.181917 
L 613.042032 327.053391 
L 618.521119 329.924864 
L 624.000205 332.796338 
L 629.479292 335.667811 
L 634.958378 338.539285 
L 640.437465 341.410758 
L 645.916551 344.282231 
L 651.395638 347.153705 
L 656.874724 350.025178 
L 662.353811 352.896652 
L 667.832897 355.768125 
L 673.311984 358.639599 
L 678.79107 360.727943 
" clip-path="url(#p41f4066519)" style="fill: none; stroke: #8b0000; stroke-width: 1.5; stroke-linecap: square"/>
   </g>
   <g id="line2d_53">
    <path d="M 536.334822 376.625464 
L 536.334822 26.88 
" clip-path="url(#p41f4066519)" style="fill: none; stroke-dasharray: 7.4,3.2; stroke-dashoffset: 0; stroke: #ff00ff; stroke-width: 2"/>
   </g>
   <g id="patch_3">
    <path d="M 40.203542 376.625464 
L 40.203542 26.88 
" style="fill: none; stroke: #000000; stroke-width: 0.8; stroke-linejoin: miter; stroke-linecap: square"/>
   </g>
   <g id="patch_4">
    <path d="M 709.2 376.625464 
L 709.2 26.88 
" style="fill: none; stroke: #000000; stroke-width: 0.8; stroke-linejoin: miter; stroke-linecap: square"/>
   </g>
   <g id="patch_5">
    <path d="M 40.203542 376.625464 
L 709.2 376.625464 
" style="fill: none; stroke: #000000; stroke-width: 0.8; stroke-linejoin: miter; stroke-linecap: square"/>
   </g>
   <g id="patch_6">
    <path d="M 40.203542 26.88 
L 709.2 26.88 
" style="fill: none; stroke: #000000; stroke-width: 0.8; stroke-linejoin: miter; stroke-linecap: square"/>
   </g>
   <g id="text_25">
    <!-- Total Items: 73 -->
    <g style="fill: #0000ff" transform="translate(601.973615 156.88935) scale(0.1 -0.1)">
     <defs>
      <path id="DejaVuSans-54" d="M -19 4666 
L 3928 4666 
L 3928 4134 
L 2272 4134 
L 2272 0 
L 1638 0 
L 1638 4134 
L -19 4134 
L -19 4666 
z
" transform="scale(0.015625)"/>
      <path id="DejaVuSans-6f" d="M 1959 3097 
Q 1497 3097 1228 2736 
Q 959 2375 959 1747 
Q 959 1119 1226 758 
Q 1494 397 1959 397 
Q 2419 397 2687 759 
Q 2956 1122 2956 1747 
Q 2956 2369 2687 2733 
Q 2419 3097 1959 3097 
z
M 1959 3584 
Q 2709 3584 3137 3096 
Q 3566 2609 3566 1747 
Q 3566 888 3137 398 
Q 2709 -91 1959 -91 
Q 1206 -91 779 398 
Q 353 888 353 1747 
Q 353 2609 779 3096 
Q 1206 3584 1959 3584 
z
" transform="scale(0.015625)"/>
      <path id="DejaVuSans-74" d="M 1172 4494 
L 1172 3500 
L 2356 3500 
L 2356 3053 
L 1172 3053 
L 1172 1153 
Q 1172 725 1289 603 
Q 1406 481 1766 481 
L 2356 481 
L 2356 0 
L 1766 0 
Q 1100 0 847 248 
Q 594 497 594 1153 
L 594 3053 
L 172 3053 
L 172 3500 
L 594 3500 
L 594 4494 
L 1172 4494 
z
" transform="scale(0.015625)"/>
      <path id="DejaVuSans-61" d="M 2194 1759 
Q 1497 1759 1228 1600 
Q 959 1441 959 1056 
Q 959 750 1161 570 
Q 1363 391 1709 391 
Q 2188 391 2477 730 
Q 2766 1069 2766 1631 
L 2766 1759 
L 2194 1759 
z
M 3341 1997 
L 3341 0 
L 2766 0 
L 2766 531 
Q 2569 213 2275 61 
Q 1981 -91 1556 -91 
Q 1019 -91 701 211 
Q 384 513 384 1019 
Q 384 1609 779 1909 
Q 1175 2209 1959 2209 
L 2766 2209 
L 2766 2266 
Q 2766 2663 2505 2880 
Q 2244 3097 1772 3097 
Q 1472 3097 1187 3025 
Q 903 2953 641 2809 
L 641 3341 
Q 956 3463 1253 3523 
Q 1550 3584 1831 3584 
Q 2591 3584 2966 3190 
Q 3341 2797 3341 1997 
z
" transform="scale(0.015625)"/>
      <path id="DejaVuSans-6c" d="M 603 4863 
L 1178 4863 
L 1178 0 
L 603 0 
L 603 4863 
z
" transform="scale(0.015625)"/>
      <path id="DejaVuSans-20" transform="scale(0.015625)"/>
      <path id="DejaVuSans-49" d="M 628 4666 
L 1259 4666 
L 1259 0 
L 628 0 
L 628 4666 
z
" transform="scale(0.015625)"/>
      <path id="DejaVuSans-65" d="M 3597 1894 
L 3597 1613 
L 953 1613 
Q 991 1019 1311 708 
Q 1631 397 2203 397 
Q 2534 397 2845 478 
Q 3156 559 3463 722 
L 3463 178 
Q 3153 47 2828 -22 
Q 2503 -91 2169 -91 
Q 1331 -91 842 396 
Q 353 884 353 1716 
Q 353 2575 817 3079 
Q 1281 3584 2069 3584 
Q 2775 3584 3186 3129 
Q 3597 2675 3597 1894 
z
M 3022 2063 
Q 3016 2534 2758 2815 
Q 2500 3097 2075 3097 
Q 1594 3097 1305 2825 
Q 1016 2553 972 2059 
L 3022 2063 
z
" transform="scale(0.015625)"/>
      <path id="DejaVuSans-6d" d="M 3328 2828 
Q 3544 3216 3844 3400 
Q 4144 3584 4550 3584 
Q 5097 3584 5394 3201 
Q 5691 2819 5691 2113 
L 5691 0 
L 5113 0 
L 5113 2094 
Q 5113 2597 4934 2840 
Q 4756 3084 4391 3084 
Q 3944 3084 3684 2787 
Q 3425 2491 3425 1978 
L 3425 0 
L 2847 0 
L 2847 2094 
Q 2847 2600 2669 2842 
Q 2491 3084 2119 3084 
Q 1678 3084 1418 2786 
Q 1159 2488 1159 1978 
L 1159 0 
L 581 0 
L 581 3500 
L 1159 3500 
L 1159 2956 
Q 1356 3278 1631 3431 
Q 1906 3584 2284 3584 
Q 2666 3584 2933 3390 
Q 3200 3197 3328 2828 
z
" transform="scale(0.015625)"/>
      <path id="DejaVuSans-73" d="M 2834 3397 
L 2834 2853 
Q 2591 2978 2328 3040 
Q 2066 3103 1784 3103 
Q 1356 3103 1142 2972 
Q 928 2841 928 2578 
Q 928 2378 1081 2264 
Q 1234 2150 1697 2047 
L 1894 2003 
Q 2506 1872 2764 1633 
Q 3022 1394 3022 966 
Q 3022 478 2636 193 
Q 2250 -91 1575 -91 
Q 1294 -91 989 -36 
Q 684 19 347 128 
L 347 722 
Q 666 556 975 473 
Q 1284 391 1588 391 
Q 1994 391 2212 530 
Q 2431 669 2431 922 
Q 2431 1156 2273 1281 
Q 2116 1406 1581 1522 
L 1381 1569 
Q 847 1681 609 1914 
Q 372 2147 372 2553 
Q 372 3047 722 3315 
Q 1072 3584 1716 3584 
Q 2034 3584 2315 3537 
Q 2597 3491 2834 3397 
z
" transform="scale(0.015625)"/>
      <path id="DejaVuSans-3a" d="M 750 794 
L 1409 794 
L 1409 0 
L 750 0 
L 750 794 
z
M 750 3309 
L 1409 3309 
L 1409 2516 
L 750 2516 
L 750 3309 
z
" transform="scale(0.015625)"/>
     </defs>
     <use xlink:href="#DejaVuSans-54"/>
     <use xlink:href="#DejaVuSans-6f" transform="translate(44.083984 0)"/>
     <use xlink:href="#DejaVuSans-74" transform="translate(105.265625 0)"/>
     <use xlink:href="#DejaVuSans-61" transform="translate(144.474609 0)"/>
     <use xlink:href="#DejaVuSans-6c" transform="translate(205.753906 0)"/>
     <use xlink:href="#DejaVuSans-20" transform="translate(233.537109 0)"/>
     <use xlink:href="#DejaVuSans-49" transform="translate(265.324219 0)"/>
     <use xlink:href="#DejaVuSans-74" transform="translate(294.816406 0)"/>
     <use xlink:href="#DejaVuSans-65" transform="translate(334.025391 0)"/>
     <use xlink:href="#DejaVuSans-6d" transform="translate(395.548828 0)"/>
     <use xlink:href="#DejaVuSans-73" transform="translate(492.960938 0)"/>
     <use xlink:href="#DejaVuSans-3a" transform="translate(545.060547 0)"/>
     <use xlink:href="#DejaVuSans-20" transform="translate(578.751953 0)"/>
     <use xlink:href="#DejaVuSans-37" transform="translate(610.539062 0)"/>
     <use xlink:href="#DejaVuSans-33" transform="translate(674.162109 0)"/>
    </g>
   </g>
   <g id="text_26">
    <!-- Weekly Throughput: 8 -->
    <g style="fill: #00008b" transform="translate(565.48924 174.376623) scale(0.1 -0.1)">
     <defs>
      <path id="DejaVuSans-57" d="M 213 4666 
L 850 4666 
L 1831 722 
L 2809 4666 
L 3519 4666 
L 4500 722 
L 5478 4666 
L 6119 4666 
L 4947 0 
L 4153 0 
L 3169 4050 
L 2175 0 
L 1381 0 
L 213 4666 
z
" transform="scale(0.015625)"/>
      <path id="DejaVuSans-6b" d="M 581 4863 
L 1159 4863 
L 1159 1991 
L 2875 3500 
L 3609 3500 
L 1753 1863 
L 3688 0 
L 2938 0 
L 1159 1709 
L 1159 0 
L 581 0 
L 581 4863 
z
" transform="scale(0.015625)"/>
      <path id="DejaVuSans-79" d="M 2059 -325 
Q 1816 -950 1584 -1140 
Q 1353 -1331 966 -1331 
L 506 -1331 
L 506 -850 
L 844 -850 
Q 1081 -850 1212 -737 
Q 1344 -625 1503 -206 
L 1606 56 
L 191 3500 
L 800 3500 
L 1894 763 
L 2988 3500 
L 3597 3500 
L 2059 -325 
z
" transform="scale(0.015625)"/>
      <path id="DejaVuSans-68" d="M 3513 2113 
L 3513 0 
L 2938 0 
L 2938 2094 
Q 2938 2591 2744 2837 
Q 2550 3084 2163 3084 
Q 1697 3084 1428 2787 
Q 1159 2491 1159 1978 
L 1159 0 
L 581 0 
L 581 4863 
L 1159 4863 
L 1159 2956 
Q 1366 3272 1645 3428 
Q 1925 3584 2291 3584 
Q 2894 3584 3203 3211 
Q 3513 2838 3513 2113 
z
" transform="scale(0.015625)"/>
      <path id="DejaVuSans-72" d="M 2631 2963 
Q 2534 3019 2420 3045 
Q 2306 3072 2169 3072 
Q 1681 3072 1420 2755 
Q 1159 2438 1159 1844 
L 1159 0 
L 581 0 
L 581 3500 
L 1159 3500 
L 1159 2956 
Q 1341 3275 1631 3429 
Q 1922 3584 2338 3584 
Q 2397 3584 2469 3576 
Q 2541 3569 2628 3553 
L 2631 2963 
z
" transform="scale(0.015625)"/>
      <path id="DejaVuSans-75" d="M 544 1381 
L 544 3500 
L 1119 3500 
L 1119 1403 
Q 1119 906 1312 657 
Q 1506 409 1894 409 
Q 2359 409 2629 706 
Q 2900 1003 2900 1516 
L 2900 3500 
L 3475 3500 
L 3475 0 
L 2900 0 
L 2900 538 
Q 2691 219 2414 64 
Q 2138 -91 1772 -91 
Q 1169 -91 856 284 
Q 544 659 544 1381 
z
M 1991 3584 
L 1991 3584 
z
" transform="scale(0.015625)"/>
      <path id="DejaVuSans-67" d="M 2906 1791 
Q 2906 2416 2648 2759 
Q 2391 3103 1925 3103 
Q 1463 3103 1205 2759 
Q 947 2416 947 1791 
Q 947 1169 1205 825 
Q 1463 481 1925 481 
Q 2391 481 2648 825 
Q 2906 1169 2906 1791 
z
M 3481 434 
Q 3481 -459 3084 -895 
Q 2688 -1331 1869 -1331 
Q 1566 -1331 1297 -1286 
Q 1028 -1241 775 -1147 
L 775 -588 
Q 1028 -725 1275 -790 
Q 1522 -856 1778 -856 
Q 2344 -856 2625 -561 
Q 2906 -266 2906 331 
L 2906 616 
Q 2728 306 2450 153 
Q 2172 0 1784 0 
Q 1141 0 747 490 
Q 353 981 353 1791 
Q 353 2603 747 3093 
Q 1141 3584 1784 3584 
Q 2172 3584 2450 3431 
Q 2728 3278 2906 2969 
L 2906 3500 
L 3481 3500 
L 3481 434 
z
" transform="scale(0.015625)"/>
      <path id="DejaVuSans-70" d="M 1159 525 
L 1159 -1331 
L 581 -1331 
L 581 3500 
L 1159 3500 
L 1159 2969 
Q 1341 3281 1617 3432 
Q 1894 3584 2278 3584 
Q 2916 3584 3314 3078 
Q 3713 2572 3713 1747 
Q 3713 922 3314 415 
Q 2916 -91 2278 -91 
Q 1894 -91 1617 61 
Q 1341 213 1159 525 
z
M 3116 1747 
Q 3116 2381 2855 2742 
Q 2594 3103 2138 3103 
Q 1681 3103 1420 2742 
Q 1159 2381 1159 1747 
Q 1159 1113 1420 752 
Q 1681 391 2138 391 
Q 2594 391 2855 752 
Q 3116 1113 3116 1747 
z
" transform="scale(0.015625)"/>
     </defs>
     <use xlink:href="#DejaVuSans-57"/>
     <use xlink:href="#DejaVuSans-65" transform="translate(93.001953 0)"/>
     <use xlink:href="#DejaVuSans-65" transform="translate(154.525391 0)"/>
     <use xlink:href="#DejaVuSans-6b" transform="translate(216.048828 0)"/>
     <use xlink:href="#DejaVuSans-6c" transform="translate(273.958984 0)"/>
     <use xlink:href="#DejaVuSans-79" transform="translate(301.742188 0)"/>
     <use xlink:href="#DejaVuSans-20" transform="translate(360.921875 0)"/>
     <use xlink:href="#DejaVuSans-54" transform="translate(392.708984 0)"/>
     <use xlink:href="#DejaVuSans-68" transform="translate(453.792969 0)"/>
     <use xlink:href="#DejaVuSans-72" transform="translate(517.171875 0)"/>
     <use xlink:href="#DejaVuSans-6f" transform="translate(556.035156 0)"/>
     <use xlink:href="#DejaVuSans-75" transform="translate(617.216797 0)"/>
     <use xlink:href="#DejaVuSans-67" transform="translate(680.595703 0)"/>
     <use xlink:href="#DejaVuSans-68" transform="translate(744.072266 0)"/>
     <use xlink:href="#DejaVuSans-70" transform="translate(807.451172 0)"/>
     <use xlink:href="#DejaVuSans-75" transform="translate(870.927734 0)"/>
     <use xlink:href="#DejaVuSans-74" transform="translate(934.306641 0)"/>
     <use xlink:href="#DejaVuSans-3a" transform="translate(973.515625 0)"/>
     <use xlink:href="#DejaVuSans-20" transform="translate(1007.207031 0)"/>
     <use xlink:href="#DejaVuSans-38" transform="translate(1038.994141 0)"/>
    </g>
   </g>
   <g id="text_27">
    <!-- Total Story Points: 348 -->
    <g style="fill: #ff0000" transform="translate(563.95799 191.863896) scale(0.1 -0.1)">
     <defs>
      <path id="DejaVuSans-53" d="M 3425 4513 
L 3425 3897 
Q 3066 4069 2747 4153 
Q 2428 4238 2131 4238 
Q 1616 4238 1336 4038 
Q 1056 3838 1056 3469 
Q 1056 3159 1242 3001 
Q 1428 2844 1947 2747 
L 2328 2669 
Q 3034 2534 3370 2195 
Q 3706 1856 3706 1288 
Q 3706 609 3251 259 
Q 2797 -91 1919 -91 
Q 1588 -91 1214 -16 
Q 841 59 441 206 
L 441 856 
Q 825 641 1194 531 
Q 1563 422 1919 422 
Q 2459 422 2753 634 
Q 3047 847 3047 1241 
Q 3047 1584 2836 1778 
Q 2625 1972 2144 2069 
L 1759 2144 
Q 1053 2284 737 2584 
Q 422 2884 422 3419 
Q 422 4038 858 4394 
Q 1294 4750 2059 4750 
Q 2388 4750 2728 4690 
Q 3069 4631 3425 4513 
z
" transform="scale(0.015625)"/>
      <path id="DejaVuSans-50" d="M 1259 4147 
L 1259 2394 
L 2053 2394 
Q 2494 2394 2734 2622 
Q 2975 2850 2975 3272 
Q 2975 3691 2734 3919 
Q 2494 4147 2053 4147 
L 1259 4147 
z
M 628 4666 
L 2053 4666 
Q 2838 4666 3239 4311 
Q 3641 3956 3641 3272 
Q 3641 2581 3239 2228 
Q 2838 1875 2053 1875 
L 1259 1875 
L 1259 0 
L 628 0 
L 628 4666 
z
" transform="scale(0.015625)"/>
      <path id="DejaVuSans-69" d="M 603 3500 
L 1178 3500 
L 1178 0 
L 603 0 
L 603 3500 
z
M 603 4863 
L 1178 4863 
L 1178 4134 
L 603 4134 
L 603 4863 
z
" transform="scale(0.015625)"/>
      <path id="DejaVuSans-6e" d="M 3513 2113 
L 3513 0 
L 2938 0 
L 2938 2094 
Q 2938 2591 2744 2837 
Q 2550 3084 2163 3084 
Q 1697 3084 1428 2787 
Q 1159 2491 1159 1978 
L 1159 0 
L 581 0 
L 581 3500 
L 1159 3500 
L 1159 2956 
Q 1366 3272 1645 3428 
Q 1925 3584 2291 3584 
Q 2894 3584 3203 3211 
Q 3513 2838 3513 2113 
z
" transform="scale(0.015625)"/>
     </defs>
     <use xlink:href="#DejaVuSans-54"/>
     <use xlink:href="#DejaVuSans-6f" transform="translate(44.083984 0)"/>
     <use xlink:href="#DejaVuSans-74" transform="translate(105.265625 0)"/>
     <use xlink:href="#DejaVuSans-61" transform="translate(144.474609 0)"/>
     <use xlink:href="#DejaVuSans-6c" transform="translate(205.753906 0)"/>
     <use xlink:href="#DejaVuSans-20" transform="translate(233.537109 0)"/>
     <use xlink:href="#DejaVuSans-53" transform="translate(265.324219 0)"/>
     <use xlink:href="#DejaVuSans-74" transform="translate(328.800781 0)"/>
     <use xlink:href="#DejaVuSans-6f" transform="translate(368.009766 0)"/>
     <use xlink:href="#DejaVuSans-72" transform="translate(429.191406 0)"/>
     <use xlink:href="#DejaVuSans-79" transform="translate(470.304688 0)"/>
     <use xlink:href="#DejaVuSans-20" transform="translate(529.484375 0)"/>
     <use xlink:href="#DejaVuSans-50" transform="translate(561.271484 0)"/>
     <use xlink:href="#DejaVuSans-6f" transform="translate(617.949219 0)"/>
     <use xlink:href="#DejaVuSans-69" transform="translate(679.130859 0)"/>
     <use xlink:href="#DejaVuSans-6e" transform="translate(706.914062 0)"/>
     <use xlink:href="#DejaVuSans-74" transform="translate(770.292969 0)"/>
     <use xlink:href="#DejaVuSans-73" transform="translate(809.501953 0)"/>
     <use xlink:href="#DejaVuSans-3a" transform="translate(861.601562 0)"/>
     <use xlink:href="#DejaVuSans-20" transform="translate(895.292969 0)"/>
     <use xlink:href="#DejaVuSans-33" transform="translate(927.080078 0)"/>
     <use xlink:href="#DejaVuSans-34" transform="translate(990.703125 0)"/>
     <use xlink:href="#DejaVuSans-38" transform="translate(1054.326172 0)"/>
    </g>
   </g>
   <g id="text_28">
    <!-- Weekly Velocity: 22 -->
    <g style="fill: #8b0000" transform="translate(578.700177 209.351169) scale(0.1 -0.1)">
     <defs>
      <path id="DejaVuSans-56" d="M 1831 0 
L 50 4666 
L 709 4666 
L 2188 738 
L 3669 4666 
L 4325 4666 
L 2547 0 
L 1831 0 
z
" transform="scale(0.015625)"/>
      <path id="DejaVuSans-63" d="M 3122 3366 
L 3122 2828 
Q 2878 2963 2633 3030 
Q 2388 3097 2138 3097 
Q 1578 3097 1268 2742 
Q 959 2388 959 1747 
Q 959 1106 1268 751 
Q 1578 397 2138 397 
Q 2388 397 2633 464 
Q 2878 531 3122 666 
L 3122 134 
Q 2881 22 2623 -34 
Q 2366 -91 2075 -91 
Q 1284 -91 818 406 
Q 353 903 353 1747 
Q 353 2603 823 3093 
Q 1294 3584 2113 3584 
Q 2378 3584 2631 3529 
Q 2884 3475 3122 3366 
z
" transform="scale(0.015625)"/>
     </defs>
     <use xlink:href="#DejaVuSans-57"/>
     <use xlink:href="#DejaVuSans-65" transform="translate(93.001953 0)"/>
     <use xlink:href="#DejaVuSans-65" transform="translate(154.525391 0)"/>
     <use xlink:href="#DejaVuSans-6b" transform="translate(216.048828 0)"/>
     <use xlink:href="#DejaVuSans-6c" transform="translate(273.958984 0)"/>
     <use xlink:href="#DejaVuSans-79" transform="translate(301.742188 0)"/>
     <use xlink:href="#DejaVuSans-20" transform="translate(360.921875 0)"/>
     <use xlink:href="#DejaVuSans-56" transform="translate(392.708984 0)"/>
     <use xlink:href="#DejaVuSans-65" transform="translate(453.367188 0)"/>
     <use xlink:href="#DejaVuSans-6c" transform="translate(514.890625 0)"/>
     <use xlink:href="#DejaVuSans-6f" transform="translate(542.673828 0)"/>
     <use xlink:href="#DejaVuSans-63" transform="translate(603.855469 0)"/>
     <use xlink:href="#DejaVuSans-69" transform="translate(658.835938 0)"/>
     <use xlink:href="#DejaVuSans-74" transform="translate(686.619141 0)"/>
     <use xlink:href="#DejaVuSans-79" transform="translate(725.828125 0)"/>
     <use xlink:href="#DejaVuSans-3a" transform="translate(777.757812 0)"/>
     <use xlink:href="#DejaVuSans-20" transform="translate(811.449219 0)"/>
     <use xlink:href="#DejaVuSans-32" transform="translate(843.236328 0)"/>
     <use xlink:href="#DejaVuSans-32" transform="translate(906.859375 0)"/>
    </g>
   </g>
   <g id="text_29">
    <!-- Deadline: 2025-05-29 -->
    <g style="fill: #ff00ff" transform="translate(566.711115 226.838443) scale(0.1 -0.1)">
     <defs>
      <path id="DejaVuSans-44" d="M 1259 4147 
L 1259 519 
L 2022 519 
Q 2988 519 3436 956 
Q 3884 1394 3884 2338 
Q 3884 3275 3436 3711 
Q 2988 4147 2022 4147 
L 1259 4147 
z
M 628 4666 
L 1925 4666 
Q 3281 4666 3915 4102 
Q 4550 3538 4550 2338 
Q 4550 1131 3912 565 
Q 3275 0 1925 0 
L 628 0 
L 628 4666 
z
" transform="scale(0.015625)"/>
      <path id="DejaVuSans-64" d="M 2906 2969 
L 2906 4863 
L 3481 4863 
L 3481 0 
L 2906 0 
L 2906 525 
Q 2725 213 2448 61 
Q 2172 -91 1784 -91 
Q 1150 -91 751 415 
Q 353 922 353 1747 
Q 353 2572 751 3078 
Q 1150 3584 1784 3584 
Q 2172 3584 2448 3432 
Q 2725 3281 2906 2969 
z
M 947 1747 
Q 947 1113 1208 752 
Q 1469 391 1925 391 
Q 2381 391 2643 752 
Q 2906 1113 2906 1747 
Q 2906 2381 2643 2742 
Q 2381 3103 1925 3103 
Q 1469 3103 1208 2742 
Q 947 2381 947 1747 
z
" transform="scale(0.015625)"/>
     </defs>
     <use xlink:href="#DejaVuSans-44"/>
     <use xlink:href="#DejaVuSans-65" transform="translate(77.001953 0)"/>
     <use xlink:href="#DejaVuSans-61" transform="translate(138.525391 0)"/>
     <use xlink:href="#DejaVuSans-64" transform="translate(199.804688 0)"/>
     <use xlink:href="#DejaVuSans-6c" transform="translate(263.28125 0)"/>
     <use xlink:href="#DejaVuSans-69" transform="translate(291.064453 0)"/>
     <use xlink:href="#DejaVuSans-6e" transform="translate(318.847656 0)"/>
     <use xlink:href="#DejaVuSans-65" transform="translate(382.226562 0)"/>
     <use xlink:href="#DejaVuSans-3a" transform="translate(443.75 0)"/>
     <use xlink:href="#DejaVuSans-20" transform="translate(477.441406 0)"/>
     <use xlink:href="#DejaVuSans-32" transform="translate(509.228516 0)"/>
     <use xlink:href="#DejaVuSans-30" transform="translate(572.851562 0)"/>
     <use xlink:href="#DejaVuSans-32" transform="translate(636.474609 0)"/>
     <use xlink:href="#DejaVuSans-35" transform="translate(700.097656 0)"/>
     <use xlink:href="#DejaVuSans-2d" transform="translate(763.720703 0)"/>
     <use xlink:href="#DejaVuSans-30" transform="translate(799.804688 0)"/>
     <use xlink:href="#DejaVuSans-35" transform="translate(863.427734 0)"/>
     <use xlink:href="#DejaVuSans-2d" transform="translate(927.050781 0)"/>
     <use xlink:href="#DejaVuSans-32" transform="translate(963.134766 0)"/>
     <use xlink:href="#DejaVuSans-39" transform="translate(1026.757812 0)"/>
    </g>
   </g>
   <g id="text_30">
    <!-- Project Burndown For 2025-03-05 -->
    <g transform="translate(273.942084 20.88) scale(0.12 -0.12)">
     <defs>
      <path id="DejaVuSans-6a" d="M 603 3500 
L 1178 3500 
L 1178 -63 
Q 1178 -731 923 -1031 
Q 669 -1331 103 -1331 
L -116 -1331 
L -116 -844 
L 38 -844 
Q 366 -844 484 -692 
Q 603 -541 603 -63 
L 603 3500 
z
M 603 4863 
L 1178 4863 
L 1178 4134 
L 603 4134 
L 603 4863 
z
" transform="scale(0.015625)"/>
      <path id="DejaVuSans-42" d="M 1259 2228 
L 1259 519 
L 2272 519 
Q 2781 519 3026 730 
Q 3272 941 3272 1375 
Q 3272 1813 3026 2020 
Q 2781 2228 2272 2228 
L 1259 2228 
z
M 1259 4147 
L 1259 2741 
L 2194 2741 
Q 2656 2741 2882 2914 
Q 3109 3088 3109 3444 
Q 3109 3797 2882 3972 
Q 2656 4147 2194 4147 
L 1259 4147 
z
M 628 4666 
L 2241 4666 
Q 2963 4666 3353 4366 
Q 3744 4066 3744 3513 
Q 3744 3084 3544 2831 
Q 3344 2578 2956 2516 
Q 3422 2416 3680 2098 
Q 3938 1781 3938 1306 
Q 3938 681 3513 340 
Q 3088 0 2303 0 
L 628 0 
L 628 4666 
z
" transform="scale(0.015625)"/>
      <path id="DejaVuSans-77" d="M 269 3500 
L 844 3500 
L 1563 769 
L 2278 3500 
L 2956 3500 
L 3675 769 
L 4391 3500 
L 4966 3500 
L 4050 0 
L 3372 0 
L 2619 2869 
L 1863 0 
L 1184 0 
L 269 3500 
z
" transform="scale(0.015625)"/>
      <path id="DejaVuSans-46" d="M 628 4666 
L 3309 4666 
L 3309 4134 
L 1259 4134 
L 1259 2759 
L 3109 2759 
L 3109 2228 
L 1259 2228 
L 1259 0 
L 628 0 
L 628 4666 
z
" transform="scale(0.015625)"/>
     </defs>
     <use xlink:href="#DejaVuSans-50"/>
     <use xlink:href="#DejaVuSans-72" transform="translate(58.552734 0)"/>
     <use xlink:href="#DejaVuSans-6f" transform="translate(97.416016 0)"/>
     <use xlink:href="#DejaVuSans-6a" transform="translate(158.597656 0)"/>
     <use xlink:href="#DejaVuSans-65" transform="translate(186.380859 0)"/>
     <use xlink:href="#DejaVuSans-63" transform="translate(247.904297 0)"/>
     <use xlink:href="#DejaVuSans-74" transform="translate(302.884766 0)"/>
     <use xlink:href="#DejaVuSans-20" transform="translate(342.09375 0)"/>
     <use xlink:href="#DejaVuSans-42" transform="translate(373.880859 0)"/>
     <use xlink:href="#DejaVuSans-75" transform="translate(442.484375 0)"/>
     <use xlink:href="#DejaVuSans-72" transform="translate(505.863281 0)"/>
     <use xlink:href="#DejaVuSans-6e" transform="translate(545.226562 0)"/>
     <use xlink:href="#DejaVuSans-64" transform="translate(608.605469 0)"/>
     <use xlink:href="#DejaVuSans-6f" transform="translate(672.082031 0)"/>
     <use xlink:href="#DejaVuSans-77" transform="translate(733.263672 0)"/>
     <use xlink:href="#DejaVuSans-6e" transform="translate(815.050781 0)"/>
     <use xlink:href="#DejaVuSans-20" transform="translate(878.429688 0)"/>
     <use xlink:href="#DejaVuSans-46" transform="translate(910.216797 0)"/>
     <use xlink:href="#DejaVuSans-6f" transform="translate(964.111328 0)"/>
     <use xlink:href="#DejaVuSans-72" transform="translate(1025.292969 0)"/>
     <use xlink:href="#DejaVuSans-20" transform="translate(1066.40625 0)"/>
     <use xlink:href="#DejaVuSans-32" transform="translate(1098.193359 0)"/>
     <use xlink:href="#DejaVuSans-30" transform="translate(1161.816406 0)"/>
     <use xlink:href="#DejaVuSans-32" transform="translate(1225.439453 0)"/>
     <use xlink:href="#DejaVuSans-35" transform="translate(1289.0625 0)"/>
     <use xlink:href="#DejaVuSans-2d" transform="translate(1352.685547 0)"/>
     <use xlink:href="#DejaVuSans-30" transform="translate(1388.769531 0)"/>
     <use xlink:href="#DejaVuSans-33" transform="translate(1452.392578 0)"/>
     <use xlink:href="#DejaVuSans-2d" transform="translate(1516.015625 0)"/>
     <use xlink:href="#DejaVuSans-30" transform="translate(1552.099609 0)"/>
     <use xlink:href="#DejaVuSans-35" transform="translate(1615.722656 0)"/>
    </g>
   </g>
   <g id="legend_1">
    <g id="patch_7">
     <path d="M 577.614063 93.5925 
L 702.2 93.5925 
Q 704.2 93.5925 704.2 91.5925 
L 704.2 33.88 
Q 704.2 31.88 702.2 31.88 
L 577.614063 31.88 
Q 575.614063 31.88 575.614063 33.88 
L 575.614063 91.5925 
Q 575.614063 93.5925 577.614063 93.5925 
z
" style="fill: #ffffff; opacity: 0.8; stroke: #cccccc; stroke-linejoin: miter"/>
    </g>
    <g id="line2d_54">
     <path d="M 579.614063 39.978438 
L 589.614063 39.978438 
L 599.614063 39.978438 
" style="fill: none; stroke-dasharray: 1.5,2.475; stroke-dashoffset: 0; stroke: #0000ff; stroke-width: 1.5"/>
    </g>
    <g id="text_31">
     <!-- Ideal Throughput -->
     <g transform="translate(607.614063 43.478438) scale(0.1 -0.1)">
      <use xlink:href="#DejaVuSans-49"/>
      <use xlink:href="#DejaVuSans-64" transform="translate(29.492188 0)"/>
      <use xlink:href="#DejaVuSans-65" transform="translate(92.96875 0)"/>
      <use xlink:href="#DejaVuSans-61" transform="translate(154.492188 0)"/>
      <use xlink:href="#DejaVuSans-6c" transform="translate(215.771484 0)"/>
      <use xlink:href="#DejaVuSans-20" transform="translate(243.554688 0)"/>
      <use xlink:href="#DejaVuSans-54" transform="translate(275.341797 0)"/>
      <use xlink:href="#DejaVuSans-68" transform="translate(336.425781 0)"/>
      <use xlink:href="#DejaVuSans-72" transform="translate(399.804688 0)"/>
      <use xlink:href="#DejaVuSans-6f" transform="translate(438.667969 0)"/>
      <use xlink:href="#DejaVuSans-75" transform="translate(499.849609 0)"/>
      <use xlink:href="#DejaVuSans-67" transform="translate(563.228516 0)"/>
      <use xlink:href="#DejaVuSans-68" transform="translate(626.705078 0)"/>
      <use xlink:href="#DejaVuSans-70" transform="translate(690.083984 0)"/>
      <use xlink:href="#DejaVuSans-75" transform="translate(753.560547 0)"/>
      <use xlink:href="#DejaVuSans-74" transform="translate(816.939453 0)"/>
     </g>
    </g>
    <g id="line2d_55">
     <path d="M 579.614063 54.656563 
L 589.614063 54.656563 
L 599.614063 54.656563 
" style="fill: none; stroke: #00008b; stroke-width: 1.5; stroke-linecap: square"/>
    </g>
    <g id="text_32">
     <!-- Actual Throughput -->
     <g transform="translate(607.614063 58.156563) scale(0.1 -0.1)">
      <defs>
       <path id="DejaVuSans-41" d="M 2188 4044 
L 1331 1722 
L 3047 1722 
L 2188 4044 
z
M 1831 4666 
L 2547 4666 
L 4325 0 
L 3669 0 
L 3244 1197 
L 1141 1197 
L 716 0 
L 50 0 
L 1831 4666 
z
" transform="scale(0.015625)"/>
      </defs>
      <use xlink:href="#DejaVuSans-41"/>
      <use xlink:href="#DejaVuSans-63" transform="translate(66.658203 0)"/>
      <use xlink:href="#DejaVuSans-74" transform="translate(121.638672 0)"/>
      <use xlink:href="#DejaVuSans-75" transform="translate(160.847656 0)"/>
      <use xlink:href="#DejaVuSans-61" transform="translate(224.226562 0)"/>
      <use xlink:href="#DejaVuSans-6c" transform="translate(285.505859 0)"/>
      <use xlink:href="#DejaVuSans-20" transform="translate(313.289062 0)"/>
      <use xlink:href="#DejaVuSans-54" transform="translate(345.076172 0)"/>
      <use xlink:href="#DejaVuSans-68" transform="translate(406.160156 0)"/>
      <use xlink:href="#DejaVuSans-72" transform="translate(469.539062 0)"/>
      <use xlink:href="#DejaVuSans-6f" transform="translate(508.402344 0)"/>
      <use xlink:href="#DejaVuSans-75" transform="translate(569.583984 0)"/>
      <use xlink:href="#DejaVuSans-67" transform="translate(632.962891 0)"/>
      <use xlink:href="#DejaVuSans-68" transform="translate(696.439453 0)"/>
      <use xlink:href="#DejaVuSans-70" transform="translate(759.818359 0)"/>
      <use xlink:href="#DejaVuSans-75" transform="translate(823.294922 0)"/>
      <use xlink:href="#DejaVuSans-74" transform="translate(886.673828 0)"/>
     </g>
    </g>
    <g id="line2d_56">
     <path d="M 579.614063 69.334688 
L 589.614063 69.334688 
L 599.614063 69.334688 
" style="fill: none; stroke-dasharray: 1.5,2.475; stroke-dashoffset: 0; stroke: #ff0000; stroke-width: 1.5"/>
    </g>
    <g id="text_33">
     <!-- Ideal Velocity -->
     <g transform="translate(607.614063 72.834688) scale(0.1 -0.1)">
      <use xlink:href="#DejaVuSans-49"/>
      <use xlink:href="#DejaVuSans-64" transform="translate(29.492188 0)"/>
      <use xlink:href="#DejaVuSans-65" transform="translate(92.96875 0)"/>
      <use xlink:href="#DejaVuSans-61" transform="translate(154.492188 0)"/>
      <use xlink:href="#DejaVuSans-6c" transform="translate(215.771484 0)"/>
      <use xlink:href="#DejaVuSans-20" transform="translate(243.554688 0)"/>
      <use xlink:href="#DejaVuSans-56" transform="translate(275.341797 0)"/>
      <use xlink:href="#DejaVuSans-65" transform="translate(336 0)"/>
      <use xlink:href="#DejaVuSans-6c" transform="translate(397.523438 0)"/>
      <use xlink:href="#DejaVuSans-6f" transform="translate(425.306641 0)"/>
      <use xlink:href="#DejaVuSans-63" transform="translate(486.488281 0)"/>
      <use xlink:href="#DejaVuSans-69" transform="translate(541.46875 0)"/>
      <use xlink:href="#DejaVuSans-74" transform="translate(569.251953 0)"/>
      <use xlink:href="#DejaVuSans-79" transform="translate(608.460938 0)"/>
     </g>
    </g>
    <g id="line2d_57">
     <path d="M 579.614063 84.012813 
L 589.614063 84.012813 
L 599.614063 84.012813 
" style="fill: none; stroke: #8b0000; stroke-width: 1.5; stroke-linecap: square"/>
    </g>
    <g id="text_34">
     <!-- Actual Velocity -->
     <g transform="translate(607.614063 87.512813) scale(0.1 -0.1)">
      <use xlink:href="#DejaVuSans-41"/>
      <use xlink:href="#DejaVuSans-63" transform="translate(66.658203 0)"/>
      <use xlink:href="#DejaVuSans-74" transform="translate(121.638672 0)"/>
      <use xlink:href="#DejaVuSans-75" transform="translate(160.847656 0)"/>
      <use xlink:href="#DejaVuSans-61" transform="translate(224.226562 0)"/>
      <use xlink:href="#DejaVuSans-6c" transform="translate(285.505859 0)"/>
      <use xlink:href="#DejaVuSans-20" transform="translate(313.289062 0)"/>
      <use xlink:href="#DejaVuSans-56" transform="translate(345.076172 0)"/>
      <use xlink:href="#DejaVuSans-65" transform="translate(405.734375 0)"/>
      <use xlink:href="#DejaVuSans-6c" transform="translate(467.257812 0)"/>
      <use xlink:href="#DejaVuSans-6f" transform="translate(495.041016 0)"/>
      <use xlink:href="#DejaVuSans-63" transform="translate(556.222656 0)"/>
      <use xlink:href="#DejaVuSans-69" transform="translate(611.203125 0)"/>
      <use xlink:href="#DejaVuSans-74" transform="translate(638.986328 0)"/>
      <use xlink:href="#DejaVuSans-79" transform="translate(678.195312 0)"/>
     </g>
    </g>
   </g>
  </g>
 </g>
 <defs>
  <clipPath id="p41f4066519">
   <rect x="40.203542" y="26.88" width="668.996458" height="349.745464"/>
  </clipPath>
 </defs>
</svg>
