<?xml version="1.0" encoding="utf-8" standalone="no"?>
<!DOCTYPE svg PUBLIC "-//W3C//DTD SVG 1.1//EN"
  "http://www.w3.org/Graphics/SVG/1.1/DTD/svg11.dtd">
<svg xmlns:xlink="http://www.w3.org/1999/xlink" width="720pt" height="432pt" viewBox="0 0 720 432" xmlns="http://www.w3.org/2000/svg" version="1.1">
 <metadata>
  <rdf:RDF xmlns:dc="http://purl.org/dc/elements/1.1/" xmlns:cc="http://creativecommons.org/ns#" xmlns:rdf="http://www.w3.org/1999/02/22-rdf-syntax-ns#">
   <cc:Work>
    <dc:type rdf:resource="http://purl.org/dc/dcmitype/StillImage"/>
    <dc:date>2025-03-07T15:22:11.447165</dc:date>
    <dc:format>image/svg+xml</dc:format>
    <dc:creator>
     <cc:Agent>
      <dc:title>Matplotlib v3.10.1, https://matplotlib.org/</dc:title>
     </cc:Agent>
    </dc:creator>
   </cc:Work>
  </rdf:RDF>
 </metadata>
 <defs>
  <style type="text/css">*{stroke-linejoin: round; stroke-linecap: butt}</style>
 </defs>
 <g id="figure_1">
  <g id="patch_1">
   <path d="M 0 432 
L 720 432 
L 720 0 
L 0 0 
z
" style="fill: #ffffff"/>
  </g>
  <g id="axes_1">
   <g id="patch_2">
    <path d="M 40.203542 376.670464 
L 694.603636 376.670464 
L 694.603636 26.88 
L 40.203542 26.88 
z
" style="fill: #ffffff"/>
   </g>
   <g id="patch_3">
    <path d="M 618.037589 359.179224 
Q 610.457826 359.88277 603.991312 360.482985 
" clip-path="url(#p7a1878c4a4)" style="fill: none; stroke: #808080; stroke-linecap: round"/>
    <path d="M 604.408085 360.645161 
L 603.991312 360.482985 
L 604.371116 360.246873 
" clip-path="url(#p7a1878c4a4)" style="fill: none; stroke: #808080; stroke-linecap: round"/>
   </g>
   <g id="patch_4">
    <path d="M 668.63564 364.391521 
Q 667.469017 363.273335 667.109541 362.928785 
" clip-path="url(#p7a1878c4a4)" style="fill: none; stroke: #808080; stroke-linecap: round"/>
    <path d="M 667.259923 363.349956 
L 667.109541 362.928785 
L 667.536707 363.061182 
" clip-path="url(#p7a1878c4a4)" style="fill: none; stroke: #808080; stroke-linecap: round"/>
   </g>
   <g id="patch_5">
    <path d="M 624.916323 342.10028 
Q 613.693321 350.821364 603.353143 358.856429 
" clip-path="url(#p7a1878c4a4)" style="fill: none; stroke: #808080; stroke-linecap: round"/>
    <path d="M 603.791711 358.768916 
L 603.353143 358.856429 
L 603.546273 358.453067 
" clip-path="url(#p7a1878c4a4)" style="fill: none; stroke: #808080; stroke-linecap: round"/>
   </g>
   <g id="patch_6">
    <path d="M 598.156692 356.470406 
Q 598.987994 357.778612 599.219664 358.143187 
" clip-path="url(#p7a1878c4a4)" style="fill: none; stroke: #808080; stroke-linecap: round"/>
    <path d="M 599.173935 357.698317 
L 599.219664 358.143187 
L 598.836331 357.912849 
" clip-path="url(#p7a1878c4a4)" style="fill: none; stroke: #808080; stroke-linecap: round"/>
   </g>
   <g id="matplotlib.axis_1">
    <g id="xtick_1">
     <g id="line2d_1">
      <path d="M 69.949001 376.670464 
L 69.949001 26.88 
" clip-path="url(#p7a1878c4a4)" style="fill: none; stroke: #b0b0b0; stroke-width: 0.8; stroke-linecap: square"/>
     </g>
     <g id="line2d_2">
      <defs>
       <path id="m7aec8738be" d="M 0 0 
L 0 3.5 
" style="stroke: #000000; stroke-width: 0.8"/>
      </defs>
      <g>
       <use xlink:href="#m7aec8738be" x="69.949001" y="376.670464" style="stroke: #000000; stroke-width: 0.8"/>
      </g>
     </g>
     <g id="text_1">
      <!-- 2025-03-07 -->
      <g transform="translate(18.57955 419.308716) rotate(-30) scale(0.1 -0.1)">
       <defs>
        <path id="DejaVuSans-32" d="M 1228 531 
L 3431 531 
L 3431 0 
L 469 0 
L 469 531 
Q 828 903 1448 1529 
Q 2069 2156 2228 2338 
Q 2531 2678 2651 2914 
Q 2772 3150 2772 3378 
Q 2772 3750 2511 3984 
Q 2250 4219 1831 4219 
Q 1534 4219 1204 4116 
Q 875 4013 500 3803 
L 500 4441 
Q 881 4594 1212 4672 
Q 1544 4750 1819 4750 
Q 2544 4750 2975 4387 
Q 3406 4025 3406 3419 
Q 3406 3131 3298 2873 
Q 3191 2616 2906 2266 
Q 2828 2175 2409 1742 
Q 1991 1309 1228 531 
z
" transform="scale(0.015625)"/>
        <path id="DejaVuSans-30" d="M 2034 4250 
Q 1547 4250 1301 3770 
Q 1056 3291 1056 2328 
Q 1056 1369 1301 889 
Q 1547 409 2034 409 
Q 2525 409 2770 889 
Q 3016 1369 3016 2328 
Q 3016 3291 2770 3770 
Q 2525 4250 2034 4250 
z
M 2034 4750 
Q 2819 4750 3233 4129 
Q 3647 3509 3647 2328 
Q 3647 1150 3233 529 
Q 2819 -91 2034 -91 
Q 1250 -91 836 529 
Q 422 1150 422 2328 
Q 422 3509 836 4129 
Q 1250 4750 2034 4750 
z
" transform="scale(0.015625)"/>
        <path id="DejaVuSans-35" d="M 691 4666 
L 3169 4666 
L 3169 4134 
L 1269 4134 
L 1269 2991 
Q 1406 3038 1543 3061 
Q 1681 3084 1819 3084 
Q 2600 3084 3056 2656 
Q 3513 2228 3513 1497 
Q 3513 744 3044 326 
Q 2575 -91 1722 -91 
Q 1428 -91 1123 -41 
Q 819 9 494 109 
L 494 744 
Q 775 591 1075 516 
Q 1375 441 1709 441 
Q 2250 441 2565 725 
Q 2881 1009 2881 1497 
Q 2881 1984 2565 2268 
Q 2250 2553 1709 2553 
Q 1456 2553 1204 2497 
Q 953 2441 691 2322 
L 691 4666 
z
" transform="scale(0.015625)"/>
        <path id="DejaVuSans-2d" d="M 313 2009 
L 1997 2009 
L 1997 1497 
L 313 1497 
L 313 2009 
z
" transform="scale(0.015625)"/>
        <path id="DejaVuSans-33" d="M 2597 2516 
Q 3050 2419 3304 2112 
Q 3559 1806 3559 1356 
Q 3559 666 3084 287 
Q 2609 -91 1734 -91 
Q 1441 -91 1130 -33 
Q 819 25 488 141 
L 488 750 
Q 750 597 1062 519 
Q 1375 441 1716 441 
Q 2309 441 2620 675 
Q 2931 909 2931 1356 
Q 2931 1769 2642 2001 
Q 2353 2234 1838 2234 
L 1294 2234 
L 1294 2753 
L 1863 2753 
Q 2328 2753 2575 2939 
Q 2822 3125 2822 3475 
Q 2822 3834 2567 4026 
Q 2313 4219 1838 4219 
Q 1578 4219 1281 4162 
Q 984 4106 628 3988 
L 628 4550 
Q 988 4650 1302 4700 
Q 1616 4750 1894 4750 
Q 2613 4750 3031 4423 
Q 3450 4097 3450 3541 
Q 3450 3153 3228 2886 
Q 3006 2619 2597 2516 
z
" transform="scale(0.015625)"/>
        <path id="DejaVuSans-37" d="M 525 4666 
L 3525 4666 
L 3525 4397 
L 1831 0 
L 1172 0 
L 2766 4134 
L 525 4134 
L 525 4666 
z
" transform="scale(0.015625)"/>
       </defs>
       <use xlink:href="#DejaVuSans-32"/>
       <use xlink:href="#DejaVuSans-30" transform="translate(63.623047 0)"/>
       <use xlink:href="#DejaVuSans-32" transform="translate(127.246094 0)"/>
       <use xlink:href="#DejaVuSans-35" transform="translate(190.869141 0)"/>
       <use xlink:href="#DejaVuSans-2d" transform="translate(254.492188 0)"/>
       <use xlink:href="#DejaVuSans-30" transform="translate(290.576172 0)"/>
       <use xlink:href="#DejaVuSans-33" transform="translate(354.199219 0)"/>
       <use xlink:href="#DejaVuSans-2d" transform="translate(417.822266 0)"/>
       <use xlink:href="#DejaVuSans-30" transform="translate(453.90625 0)"/>
       <use xlink:href="#DejaVuSans-37" transform="translate(517.529297 0)"/>
      </g>
     </g>
    </g>
    <g id="xtick_2">
     <g id="line2d_3">
      <path d="M 114.727111 376.670464 
L 114.727111 26.88 
" clip-path="url(#p7a1878c4a4)" style="fill: none; stroke: #b0b0b0; stroke-width: 0.8; stroke-linecap: square"/>
     </g>
     <g id="line2d_4">
      <g>
       <use xlink:href="#m7aec8738be" x="114.727111" y="376.670464" style="stroke: #000000; stroke-width: 0.8"/>
      </g>
     </g>
     <g id="text_2">
      <!-- 2025-03-14 -->
      <g transform="translate(63.35766 419.308716) rotate(-30) scale(0.1 -0.1)">
       <defs>
        <path id="DejaVuSans-31" d="M 794 531 
L 1825 531 
L 1825 4091 
L 703 3866 
L 703 4441 
L 1819 4666 
L 2450 4666 
L 2450 531 
L 3481 531 
L 3481 0 
L 794 0 
L 794 531 
z
" transform="scale(0.015625)"/>
        <path id="DejaVuSans-34" d="M 2419 4116 
L 825 1625 
L 2419 1625 
L 2419 4116 
z
M 2253 4666 
L 3047 4666 
L 3047 1625 
L 3713 1625 
L 3713 1100 
L 3047 1100 
L 3047 0 
L 2419 0 
L 2419 1100 
L 313 1100 
L 313 1709 
L 2253 4666 
z
" transform="scale(0.015625)"/>
       </defs>
       <use xlink:href="#DejaVuSans-32"/>
       <use xlink:href="#DejaVuSans-30" transform="translate(63.623047 0)"/>
       <use xlink:href="#DejaVuSans-32" transform="translate(127.246094 0)"/>
       <use xlink:href="#DejaVuSans-35" transform="translate(190.869141 0)"/>
       <use xlink:href="#DejaVuSans-2d" transform="translate(254.492188 0)"/>
       <use xlink:href="#DejaVuSans-30" transform="translate(290.576172 0)"/>
       <use xlink:href="#DejaVuSans-33" transform="translate(354.199219 0)"/>
       <use xlink:href="#DejaVuSans-2d" transform="translate(417.822266 0)"/>
       <use xlink:href="#DejaVuSans-31" transform="translate(453.90625 0)"/>
       <use xlink:href="#DejaVuSans-34" transform="translate(517.529297 0)"/>
      </g>
     </g>
    </g>
    <g id="xtick_3">
     <g id="line2d_5">
      <path d="M 159.505221 376.670464 
L 159.505221 26.88 
" clip-path="url(#p7a1878c4a4)" style="fill: none; stroke: #b0b0b0; stroke-width: 0.8; stroke-linecap: square"/>
     </g>
     <g id="line2d_6">
      <g>
       <use xlink:href="#m7aec8738be" x="159.505221" y="376.670464" style="stroke: #000000; stroke-width: 0.8"/>
      </g>
     </g>
     <g id="text_3">
      <!-- 2025-03-21 -->
      <g transform="translate(108.13577 419.308716) rotate(-30) scale(0.1 -0.1)">
       <use xlink:href="#DejaVuSans-32"/>
       <use xlink:href="#DejaVuSans-30" transform="translate(63.623047 0)"/>
       <use xlink:href="#DejaVuSans-32" transform="translate(127.246094 0)"/>
       <use xlink:href="#DejaVuSans-35" transform="translate(190.869141 0)"/>
       <use xlink:href="#DejaVuSans-2d" transform="translate(254.492188 0)"/>
       <use xlink:href="#DejaVuSans-30" transform="translate(290.576172 0)"/>
       <use xlink:href="#DejaVuSans-33" transform="translate(354.199219 0)"/>
       <use xlink:href="#DejaVuSans-2d" transform="translate(417.822266 0)"/>
       <use xlink:href="#DejaVuSans-32" transform="translate(453.90625 0)"/>
       <use xlink:href="#DejaVuSans-31" transform="translate(517.529297 0)"/>
      </g>
     </g>
    </g>
    <g id="xtick_4">
     <g id="line2d_7">
      <path d="M 204.283331 376.670464 
L 204.283331 26.88 
" clip-path="url(#p7a1878c4a4)" style="fill: none; stroke: #b0b0b0; stroke-width: 0.8; stroke-linecap: square"/>
     </g>
     <g id="line2d_8">
      <g>
       <use xlink:href="#m7aec8738be" x="204.283331" y="376.670464" style="stroke: #000000; stroke-width: 0.8"/>
      </g>
     </g>
     <g id="text_4">
      <!-- 2025-03-28 -->
      <g transform="translate(152.91388 419.308716) rotate(-30) scale(0.1 -0.1)">
       <defs>
        <path id="DejaVuSans-38" d="M 2034 2216 
Q 1584 2216 1326 1975 
Q 1069 1734 1069 1313 
Q 1069 891 1326 650 
Q 1584 409 2034 409 
Q 2484 409 2743 651 
Q 3003 894 3003 1313 
Q 3003 1734 2745 1975 
Q 2488 2216 2034 2216 
z
M 1403 2484 
Q 997 2584 770 2862 
Q 544 3141 544 3541 
Q 544 4100 942 4425 
Q 1341 4750 2034 4750 
Q 2731 4750 3128 4425 
Q 3525 4100 3525 3541 
Q 3525 3141 3298 2862 
Q 3072 2584 2669 2484 
Q 3125 2378 3379 2068 
Q 3634 1759 3634 1313 
Q 3634 634 3220 271 
Q 2806 -91 2034 -91 
Q 1263 -91 848 271 
Q 434 634 434 1313 
Q 434 1759 690 2068 
Q 947 2378 1403 2484 
z
M 1172 3481 
Q 1172 3119 1398 2916 
Q 1625 2713 2034 2713 
Q 2441 2713 2670 2916 
Q 2900 3119 2900 3481 
Q 2900 3844 2670 4047 
Q 2441 4250 2034 4250 
Q 1625 4250 1398 4047 
Q 1172 3844 1172 3481 
z
" transform="scale(0.015625)"/>
       </defs>
       <use xlink:href="#DejaVuSans-32"/>
       <use xlink:href="#DejaVuSans-30" transform="translate(63.623047 0)"/>
       <use xlink:href="#DejaVuSans-32" transform="translate(127.246094 0)"/>
       <use xlink:href="#DejaVuSans-35" transform="translate(190.869141 0)"/>
       <use xlink:href="#DejaVuSans-2d" transform="translate(254.492188 0)"/>
       <use xlink:href="#DejaVuSans-30" transform="translate(290.576172 0)"/>
       <use xlink:href="#DejaVuSans-33" transform="translate(354.199219 0)"/>
       <use xlink:href="#DejaVuSans-2d" transform="translate(417.822266 0)"/>
       <use xlink:href="#DejaVuSans-32" transform="translate(453.90625 0)"/>
       <use xlink:href="#DejaVuSans-38" transform="translate(517.529297 0)"/>
      </g>
     </g>
    </g>
    <g id="xtick_5">
     <g id="line2d_9">
      <path d="M 249.061441 376.670464 
L 249.061441 26.88 
" clip-path="url(#p7a1878c4a4)" style="fill: none; stroke: #b0b0b0; stroke-width: 0.8; stroke-linecap: square"/>
     </g>
     <g id="line2d_10">
      <g>
       <use xlink:href="#m7aec8738be" x="249.061441" y="376.670464" style="stroke: #000000; stroke-width: 0.8"/>
      </g>
     </g>
     <g id="text_5">
      <!-- 2025-04-04 -->
      <g transform="translate(197.69199 419.308716) rotate(-30) scale(0.1 -0.1)">
       <use xlink:href="#DejaVuSans-32"/>
       <use xlink:href="#DejaVuSans-30" transform="translate(63.623047 0)"/>
       <use xlink:href="#DejaVuSans-32" transform="translate(127.246094 0)"/>
       <use xlink:href="#DejaVuSans-35" transform="translate(190.869141 0)"/>
       <use xlink:href="#DejaVuSans-2d" transform="translate(254.492188 0)"/>
       <use xlink:href="#DejaVuSans-30" transform="translate(290.576172 0)"/>
       <use xlink:href="#DejaVuSans-34" transform="translate(354.199219 0)"/>
       <use xlink:href="#DejaVuSans-2d" transform="translate(417.822266 0)"/>
       <use xlink:href="#DejaVuSans-30" transform="translate(453.90625 0)"/>
       <use xlink:href="#DejaVuSans-34" transform="translate(517.529297 0)"/>
      </g>
     </g>
    </g>
    <g id="xtick_6">
     <g id="line2d_11">
      <path d="M 293.839551 376.670464 
L 293.839551 26.88 
" clip-path="url(#p7a1878c4a4)" style="fill: none; stroke: #b0b0b0; stroke-width: 0.8; stroke-linecap: square"/>
     </g>
     <g id="line2d_12">
      <g>
       <use xlink:href="#m7aec8738be" x="293.839551" y="376.670464" style="stroke: #000000; stroke-width: 0.8"/>
      </g>
     </g>
     <g id="text_6">
      <!-- 2025-04-11 -->
      <g transform="translate(242.4701 419.308716) rotate(-30) scale(0.1 -0.1)">
       <use xlink:href="#DejaVuSans-32"/>
       <use xlink:href="#DejaVuSans-30" transform="translate(63.623047 0)"/>
       <use xlink:href="#DejaVuSans-32" transform="translate(127.246094 0)"/>
       <use xlink:href="#DejaVuSans-35" transform="translate(190.869141 0)"/>
       <use xlink:href="#DejaVuSans-2d" transform="translate(254.492188 0)"/>
       <use xlink:href="#DejaVuSans-30" transform="translate(290.576172 0)"/>
       <use xlink:href="#DejaVuSans-34" transform="translate(354.199219 0)"/>
       <use xlink:href="#DejaVuSans-2d" transform="translate(417.822266 0)"/>
       <use xlink:href="#DejaVuSans-31" transform="translate(453.90625 0)"/>
       <use xlink:href="#DejaVuSans-31" transform="translate(517.529297 0)"/>
      </g>
     </g>
    </g>
    <g id="xtick_7">
     <g id="line2d_13">
      <path d="M 338.617661 376.670464 
L 338.617661 26.88 
" clip-path="url(#p7a1878c4a4)" style="fill: none; stroke: #b0b0b0; stroke-width: 0.8; stroke-linecap: square"/>
     </g>
     <g id="line2d_14">
      <g>
       <use xlink:href="#m7aec8738be" x="338.617661" y="376.670464" style="stroke: #000000; stroke-width: 0.8"/>
      </g>
     </g>
     <g id="text_7">
      <!-- 2025-04-18 -->
      <g transform="translate(287.24821 419.308716) rotate(-30) scale(0.1 -0.1)">
       <use xlink:href="#DejaVuSans-32"/>
       <use xlink:href="#DejaVuSans-30" transform="translate(63.623047 0)"/>
       <use xlink:href="#DejaVuSans-32" transform="translate(127.246094 0)"/>
       <use xlink:href="#DejaVuSans-35" transform="translate(190.869141 0)"/>
       <use xlink:href="#DejaVuSans-2d" transform="translate(254.492188 0)"/>
       <use xlink:href="#DejaVuSans-30" transform="translate(290.576172 0)"/>
       <use xlink:href="#DejaVuSans-34" transform="translate(354.199219 0)"/>
       <use xlink:href="#DejaVuSans-2d" transform="translate(417.822266 0)"/>
       <use xlink:href="#DejaVuSans-31" transform="translate(453.90625 0)"/>
       <use xlink:href="#DejaVuSans-38" transform="translate(517.529297 0)"/>
      </g>
     </g>
    </g>
    <g id="xtick_8">
     <g id="line2d_15">
      <path d="M 383.395772 376.670464 
L 383.395772 26.88 
" clip-path="url(#p7a1878c4a4)" style="fill: none; stroke: #b0b0b0; stroke-width: 0.8; stroke-linecap: square"/>
     </g>
     <g id="line2d_16">
      <g>
       <use xlink:href="#m7aec8738be" x="383.395772" y="376.670464" style="stroke: #000000; stroke-width: 0.8"/>
      </g>
     </g>
     <g id="text_8">
      <!-- 2025-04-25 -->
      <g transform="translate(332.02632 419.308716) rotate(-30) scale(0.1 -0.1)">
       <use xlink:href="#DejaVuSans-32"/>
       <use xlink:href="#DejaVuSans-30" transform="translate(63.623047 0)"/>
       <use xlink:href="#DejaVuSans-32" transform="translate(127.246094 0)"/>
       <use xlink:href="#DejaVuSans-35" transform="translate(190.869141 0)"/>
       <use xlink:href="#DejaVuSans-2d" transform="translate(254.492188 0)"/>
       <use xlink:href="#DejaVuSans-30" transform="translate(290.576172 0)"/>
       <use xlink:href="#DejaVuSans-34" transform="translate(354.199219 0)"/>
       <use xlink:href="#DejaVuSans-2d" transform="translate(417.822266 0)"/>
       <use xlink:href="#DejaVuSans-32" transform="translate(453.90625 0)"/>
       <use xlink:href="#DejaVuSans-35" transform="translate(517.529297 0)"/>
      </g>
     </g>
    </g>
    <g id="xtick_9">
     <g id="line2d_17">
      <path d="M 428.173882 376.670464 
L 428.173882 26.88 
" clip-path="url(#p7a1878c4a4)" style="fill: none; stroke: #b0b0b0; stroke-width: 0.8; stroke-linecap: square"/>
     </g>
     <g id="line2d_18">
      <g>
       <use xlink:href="#m7aec8738be" x="428.173882" y="376.670464" style="stroke: #000000; stroke-width: 0.8"/>
      </g>
     </g>
     <g id="text_9">
      <!-- 2025-05-02 -->
      <g transform="translate(376.80443 419.308716) rotate(-30) scale(0.1 -0.1)">
       <use xlink:href="#DejaVuSans-32"/>
       <use xlink:href="#DejaVuSans-30" transform="translate(63.623047 0)"/>
       <use xlink:href="#DejaVuSans-32" transform="translate(127.246094 0)"/>
       <use xlink:href="#DejaVuSans-35" transform="translate(190.869141 0)"/>
       <use xlink:href="#DejaVuSans-2d" transform="translate(254.492188 0)"/>
       <use xlink:href="#DejaVuSans-30" transform="translate(290.576172 0)"/>
       <use xlink:href="#DejaVuSans-35" transform="translate(354.199219 0)"/>
       <use xlink:href="#DejaVuSans-2d" transform="translate(417.822266 0)"/>
       <use xlink:href="#DejaVuSans-30" transform="translate(453.90625 0)"/>
       <use xlink:href="#DejaVuSans-32" transform="translate(517.529297 0)"/>
      </g>
     </g>
    </g>
    <g id="xtick_10">
     <g id="line2d_19">
      <path d="M 472.951992 376.670464 
L 472.951992 26.88 
" clip-path="url(#p7a1878c4a4)" style="fill: none; stroke: #b0b0b0; stroke-width: 0.8; stroke-linecap: square"/>
     </g>
     <g id="line2d_20">
      <g>
       <use xlink:href="#m7aec8738be" x="472.951992" y="376.670464" style="stroke: #000000; stroke-width: 0.8"/>
      </g>
     </g>
     <g id="text_10">
      <!-- 2025-05-09 -->
      <g transform="translate(421.58254 419.308716) rotate(-30) scale(0.1 -0.1)">
       <defs>
        <path id="DejaVuSans-39" d="M 703 97 
L 703 672 
Q 941 559 1184 500 
Q 1428 441 1663 441 
Q 2288 441 2617 861 
Q 2947 1281 2994 2138 
Q 2813 1869 2534 1725 
Q 2256 1581 1919 1581 
Q 1219 1581 811 2004 
Q 403 2428 403 3163 
Q 403 3881 828 4315 
Q 1253 4750 1959 4750 
Q 2769 4750 3195 4129 
Q 3622 3509 3622 2328 
Q 3622 1225 3098 567 
Q 2575 -91 1691 -91 
Q 1453 -91 1209 -44 
Q 966 3 703 97 
z
M 1959 2075 
Q 2384 2075 2632 2365 
Q 2881 2656 2881 3163 
Q 2881 3666 2632 3958 
Q 2384 4250 1959 4250 
Q 1534 4250 1286 3958 
Q 1038 3666 1038 3163 
Q 1038 2656 1286 2365 
Q 1534 2075 1959 2075 
z
" transform="scale(0.015625)"/>
       </defs>
       <use xlink:href="#DejaVuSans-32"/>
       <use xlink:href="#DejaVuSans-30" transform="translate(63.623047 0)"/>
       <use xlink:href="#DejaVuSans-32" transform="translate(127.246094 0)"/>
       <use xlink:href="#DejaVuSans-35" transform="translate(190.869141 0)"/>
       <use xlink:href="#DejaVuSans-2d" transform="translate(254.492188 0)"/>
       <use xlink:href="#DejaVuSans-30" transform="translate(290.576172 0)"/>
       <use xlink:href="#DejaVuSans-35" transform="translate(354.199219 0)"/>
       <use xlink:href="#DejaVuSans-2d" transform="translate(417.822266 0)"/>
       <use xlink:href="#DejaVuSans-30" transform="translate(453.90625 0)"/>
       <use xlink:href="#DejaVuSans-39" transform="translate(517.529297 0)"/>
      </g>
     </g>
    </g>
    <g id="xtick_11">
     <g id="line2d_21">
      <path d="M 517.730102 376.670464 
L 517.730102 26.88 
" clip-path="url(#p7a1878c4a4)" style="fill: none; stroke: #b0b0b0; stroke-width: 0.8; stroke-linecap: square"/>
     </g>
     <g id="line2d_22">
      <g>
       <use xlink:href="#m7aec8738be" x="517.730102" y="376.670464" style="stroke: #000000; stroke-width: 0.8"/>
      </g>
     </g>
     <g id="text_11">
      <!-- 2025-05-16 -->
      <g transform="translate(466.36065 419.308716) rotate(-30) scale(0.1 -0.1)">
       <defs>
        <path id="DejaVuSans-36" d="M 2113 2584 
Q 1688 2584 1439 2293 
Q 1191 2003 1191 1497 
Q 1191 994 1439 701 
Q 1688 409 2113 409 
Q 2538 409 2786 701 
Q 3034 994 3034 1497 
Q 3034 2003 2786 2293 
Q 2538 2584 2113 2584 
z
M 3366 4563 
L 3366 3988 
Q 3128 4100 2886 4159 
Q 2644 4219 2406 4219 
Q 1781 4219 1451 3797 
Q 1122 3375 1075 2522 
Q 1259 2794 1537 2939 
Q 1816 3084 2150 3084 
Q 2853 3084 3261 2657 
Q 3669 2231 3669 1497 
Q 3669 778 3244 343 
Q 2819 -91 2113 -91 
Q 1303 -91 875 529 
Q 447 1150 447 2328 
Q 447 3434 972 4092 
Q 1497 4750 2381 4750 
Q 2619 4750 2861 4703 
Q 3103 4656 3366 4563 
z
" transform="scale(0.015625)"/>
       </defs>
       <use xlink:href="#DejaVuSans-32"/>
       <use xlink:href="#DejaVuSans-30" transform="translate(63.623047 0)"/>
       <use xlink:href="#DejaVuSans-32" transform="translate(127.246094 0)"/>
       <use xlink:href="#DejaVuSans-35" transform="translate(190.869141 0)"/>
       <use xlink:href="#DejaVuSans-2d" transform="translate(254.492188 0)"/>
       <use xlink:href="#DejaVuSans-30" transform="translate(290.576172 0)"/>
       <use xlink:href="#DejaVuSans-35" transform="translate(354.199219 0)"/>
       <use xlink:href="#DejaVuSans-2d" transform="translate(417.822266 0)"/>
       <use xlink:href="#DejaVuSans-31" transform="translate(453.90625 0)"/>
       <use xlink:href="#DejaVuSans-36" transform="translate(517.529297 0)"/>
      </g>
     </g>
    </g>
    <g id="xtick_12">
     <g id="line2d_23">
      <path d="M 562.508212 376.670464 
L 562.508212 26.88 
" clip-path="url(#p7a1878c4a4)" style="fill: none; stroke: #b0b0b0; stroke-width: 0.8; stroke-linecap: square"/>
     </g>
     <g id="line2d_24">
      <g>
       <use xlink:href="#m7aec8738be" x="562.508212" y="376.670464" style="stroke: #000000; stroke-width: 0.8"/>
      </g>
     </g>
     <g id="text_12">
      <!-- 2025-05-23 -->
      <g transform="translate(511.13876 419.308716) rotate(-30) scale(0.1 -0.1)">
       <use xlink:href="#DejaVuSans-32"/>
       <use xlink:href="#DejaVuSans-30" transform="translate(63.623047 0)"/>
       <use xlink:href="#DejaVuSans-32" transform="translate(127.246094 0)"/>
       <use xlink:href="#DejaVuSans-35" transform="translate(190.869141 0)"/>
       <use xlink:href="#DejaVuSans-2d" transform="translate(254.492188 0)"/>
       <use xlink:href="#DejaVuSans-30" transform="translate(290.576172 0)"/>
       <use xlink:href="#DejaVuSans-35" transform="translate(354.199219 0)"/>
       <use xlink:href="#DejaVuSans-2d" transform="translate(417.822266 0)"/>
       <use xlink:href="#DejaVuSans-32" transform="translate(453.90625 0)"/>
       <use xlink:href="#DejaVuSans-33" transform="translate(517.529297 0)"/>
      </g>
     </g>
    </g>
    <g id="xtick_13">
     <g id="line2d_25">
      <path d="M 607.286322 376.670464 
L 607.286322 26.88 
" clip-path="url(#p7a1878c4a4)" style="fill: none; stroke: #b0b0b0; stroke-width: 0.8; stroke-linecap: square"/>
     </g>
     <g id="line2d_26">
      <g>
       <use xlink:href="#m7aec8738be" x="607.286322" y="376.670464" style="stroke: #000000; stroke-width: 0.8"/>
      </g>
     </g>
     <g id="text_13">
      <!-- 2025-05-30 -->
      <g transform="translate(555.91687 419.308716) rotate(-30) scale(0.1 -0.1)">
       <use xlink:href="#DejaVuSans-32"/>
       <use xlink:href="#DejaVuSans-30" transform="translate(63.623047 0)"/>
       <use xlink:href="#DejaVuSans-32" transform="translate(127.246094 0)"/>
       <use xlink:href="#DejaVuSans-35" transform="translate(190.869141 0)"/>
       <use xlink:href="#DejaVuSans-2d" transform="translate(254.492188 0)"/>
       <use xlink:href="#DejaVuSans-30" transform="translate(290.576172 0)"/>
       <use xlink:href="#DejaVuSans-35" transform="translate(354.199219 0)"/>
       <use xlink:href="#DejaVuSans-2d" transform="translate(417.822266 0)"/>
       <use xlink:href="#DejaVuSans-33" transform="translate(453.90625 0)"/>
       <use xlink:href="#DejaVuSans-30" transform="translate(517.529297 0)"/>
      </g>
     </g>
    </g>
    <g id="xtick_14">
     <g id="line2d_27">
      <path d="M 652.064432 376.670464 
L 652.064432 26.88 
" clip-path="url(#p7a1878c4a4)" style="fill: none; stroke: #b0b0b0; stroke-width: 0.8; stroke-linecap: square"/>
     </g>
     <g id="line2d_28">
      <g>
       <use xlink:href="#m7aec8738be" x="652.064432" y="376.670464" style="stroke: #000000; stroke-width: 0.8"/>
      </g>
     </g>
     <g id="text_14">
      <!-- 2025-06-06 -->
      <g transform="translate(600.69498 419.308716) rotate(-30) scale(0.1 -0.1)">
       <use xlink:href="#DejaVuSans-32"/>
       <use xlink:href="#DejaVuSans-30" transform="translate(63.623047 0)"/>
       <use xlink:href="#DejaVuSans-32" transform="translate(127.246094 0)"/>
       <use xlink:href="#DejaVuSans-35" transform="translate(190.869141 0)"/>
       <use xlink:href="#DejaVuSans-2d" transform="translate(254.492188 0)"/>
       <use xlink:href="#DejaVuSans-30" transform="translate(290.576172 0)"/>
       <use xlink:href="#DejaVuSans-36" transform="translate(354.199219 0)"/>
       <use xlink:href="#DejaVuSans-2d" transform="translate(417.822266 0)"/>
       <use xlink:href="#DejaVuSans-30" transform="translate(453.90625 0)"/>
       <use xlink:href="#DejaVuSans-36" transform="translate(517.529297 0)"/>
      </g>
     </g>
    </g>
   </g>
   <g id="matplotlib.axis_2">
    <g id="ytick_1">
     <g id="line2d_29">
      <path d="M 40.203542 360.770897 
L 694.603636 360.770897 
" clip-path="url(#p7a1878c4a4)" style="fill: none; stroke: #b0b0b0; stroke-width: 0.8; stroke-linecap: square"/>
     </g>
     <g id="line2d_30">
      <defs>
       <path id="me562cc0ecd" d="M 0 0 
L -3.5 0 
" style="stroke: #000000; stroke-width: 0.8"/>
      </defs>
      <g>
       <use xlink:href="#me562cc0ecd" x="40.203542" y="360.770897" style="stroke: #000000; stroke-width: 0.8"/>
      </g>
     </g>
     <g id="text_15">
      <!-- 0 -->
      <g transform="translate(26.841042 364.570116) scale(0.1 -0.1)">
       <use xlink:href="#DejaVuSans-30"/>
      </g>
     </g>
    </g>
    <g id="ytick_2">
     <g id="line2d_31">
      <path d="M 40.203542 295.608739 
L 694.603636 295.608739 
" clip-path="url(#p7a1878c4a4)" style="fill: none; stroke: #b0b0b0; stroke-width: 0.8; stroke-linecap: square"/>
     </g>
     <g id="line2d_32">
      <g>
       <use xlink:href="#me562cc0ecd" x="40.203542" y="295.608739" style="stroke: #000000; stroke-width: 0.8"/>
      </g>
     </g>
     <g id="text_16">
      <!-- 100 -->
      <g transform="translate(14.116042 299.407958) scale(0.1 -0.1)">
       <use xlink:href="#DejaVuSans-31"/>
       <use xlink:href="#DejaVuSans-30" transform="translate(63.623047 0)"/>
       <use xlink:href="#DejaVuSans-30" transform="translate(127.246094 0)"/>
      </g>
     </g>
    </g>
    <g id="ytick_3">
     <g id="line2d_33">
      <path d="M 40.203542 230.446581 
L 694.603636 230.446581 
" clip-path="url(#p7a1878c4a4)" style="fill: none; stroke: #b0b0b0; stroke-width: 0.8; stroke-linecap: square"/>
     </g>
     <g id="line2d_34">
      <g>
       <use xlink:href="#me562cc0ecd" x="40.203542" y="230.446581" style="stroke: #000000; stroke-width: 0.8"/>
      </g>
     </g>
     <g id="text_17">
      <!-- 200 -->
      <g transform="translate(14.116042 234.2458) scale(0.1 -0.1)">
       <use xlink:href="#DejaVuSans-32"/>
       <use xlink:href="#DejaVuSans-30" transform="translate(63.623047 0)"/>
       <use xlink:href="#DejaVuSans-30" transform="translate(127.246094 0)"/>
      </g>
     </g>
    </g>
    <g id="ytick_4">
     <g id="line2d_35">
      <path d="M 40.203542 165.284424 
L 694.603636 165.284424 
" clip-path="url(#p7a1878c4a4)" style="fill: none; stroke: #b0b0b0; stroke-width: 0.8; stroke-linecap: square"/>
     </g>
     <g id="line2d_36">
      <g>
       <use xlink:href="#me562cc0ecd" x="40.203542" y="165.284424" style="stroke: #000000; stroke-width: 0.8"/>
      </g>
     </g>
     <g id="text_18">
      <!-- 300 -->
      <g transform="translate(14.116042 169.083642) scale(0.1 -0.1)">
       <use xlink:href="#DejaVuSans-33"/>
       <use xlink:href="#DejaVuSans-30" transform="translate(63.623047 0)"/>
       <use xlink:href="#DejaVuSans-30" transform="translate(127.246094 0)"/>
      </g>
     </g>
    </g>
    <g id="ytick_5">
     <g id="line2d_37">
      <path d="M 40.203542 100.122266 
L 694.603636 100.122266 
" clip-path="url(#p7a1878c4a4)" style="fill: none; stroke: #b0b0b0; stroke-width: 0.8; stroke-linecap: square"/>
     </g>
     <g id="line2d_38">
      <g>
       <use xlink:href="#me562cc0ecd" x="40.203542" y="100.122266" style="stroke: #000000; stroke-width: 0.8"/>
      </g>
     </g>
     <g id="text_19">
      <!-- 400 -->
      <g transform="translate(14.116042 103.921484) scale(0.1 -0.1)">
       <use xlink:href="#DejaVuSans-34"/>
       <use xlink:href="#DejaVuSans-30" transform="translate(63.623047 0)"/>
       <use xlink:href="#DejaVuSans-30" transform="translate(127.246094 0)"/>
      </g>
     </g>
    </g>
    <g id="ytick_6">
     <g id="line2d_39">
      <path d="M 40.203542 34.960108 
L 694.603636 34.960108 
" clip-path="url(#p7a1878c4a4)" style="fill: none; stroke: #b0b0b0; stroke-width: 0.8; stroke-linecap: square"/>
     </g>
     <g id="line2d_40">
      <g>
       <use xlink:href="#me562cc0ecd" x="40.203542" y="34.960108" style="stroke: #000000; stroke-width: 0.8"/>
      </g>
     </g>
     <g id="text_20">
      <!-- 500 -->
      <g transform="translate(14.116042 38.759326) scale(0.1 -0.1)">
       <use xlink:href="#DejaVuSans-35"/>
       <use xlink:href="#DejaVuSans-30" transform="translate(63.623047 0)"/>
       <use xlink:href="#DejaVuSans-30" transform="translate(127.246094 0)"/>
      </g>
     </g>
    </g>
   </g>
   <g id="line2d_41">
    <path d="M 69.949001 315.157387 
L 76.345874 315.706947 
L 82.742747 316.256508 
L 89.13962 316.806068 
L 95.536493 317.355628 
L 101.933365 317.905189 
L 108.330238 318.454749 
L 114.727111 319.004309 
L 121.123984 319.55387 
L 127.520857 320.10343 
L 133.91773 320.65299 
L 140.314603 321.202551 
L 146.711476 321.752111 
L 153.108348 322.301672 
L 159.505221 322.851232 
L 165.902094 323.400792 
L 172.298967 323.950353 
L 178.69584 324.499913 
L 185.092713 325.049473 
L 191.489586 325.599034 
L 197.886458 326.148594 
L 204.283331 326.698155 
L 210.680204 327.247715 
L 217.077077 327.797275 
L 223.47395 328.346836 
L 229.870823 328.896396 
L 236.267696 329.445956 
L 242.664568 329.995517 
L 249.061441 330.545077 
L 255.458314 331.094637 
L 261.855187 331.644198 
L 268.25206 332.193758 
L 274.648933 332.743319 
L 281.045806 333.292879 
L 287.442679 333.842439 
L 293.839551 334.392 
L 300.236424 334.94156 
L 306.633297 335.49112 
L 313.03017 336.040681 
L 319.427043 336.590241 
L 325.823916 337.139802 
L 332.220789 337.689362 
L 338.617661 338.238922 
L 345.014534 338.788483 
L 351.411407 339.338043 
L 357.80828 339.887603 
L 364.205153 340.437164 
L 370.602026 340.986724 
L 376.998899 341.536284 
L 383.395772 342.085845 
L 389.792644 342.635405 
L 396.189517 343.184966 
L 402.58639 343.734526 
L 408.983263 344.284086 
L 415.380136 344.833647 
L 421.777009 345.383207 
L 428.173882 345.932767 
L 434.570754 346.482328 
L 440.967627 347.031888 
L 447.3645 347.581449 
L 453.761373 348.131009 
L 460.158246 348.680569 
L 466.555119 349.23013 
L 472.951992 349.77969 
L 479.348864 350.32925 
L 485.745737 350.878811 
L 492.14261 351.428371 
L 498.539483 351.977931 
L 504.936356 352.527492 
L 511.333229 353.077052 
L 517.730102 353.626613 
L 524.126975 354.176173 
L 530.523847 354.725733 
L 536.92072 355.275294 
L 543.317593 355.824854 
L 549.714466 356.374414 
L 556.111339 356.923975 
L 562.508212 357.473535 
L 568.905085 358.023096 
L 575.301957 358.572656 
L 581.69883 359.122216 
L 588.095703 359.671777 
L 594.492576 360.221337 
L 600.889449 360.770897 
" clip-path="url(#p7a1878c4a4)" style="fill: none; stroke-dasharray: 1.5,2.475; stroke-dashoffset: 0; stroke: #0000ff; stroke-width: 1.5"/>
   </g>
   <g id="line2d_42">
    <path d="M 69.949001 315.157387 
L 76.345874 316.088275 
L 82.742747 317.019163 
L 89.13962 317.950051 
L 95.536493 318.880939 
L 101.933365 319.811827 
L 108.330238 320.742715 
L 114.727111 321.673603 
L 121.123984 322.604491 
L 127.520857 323.535379 
L 133.91773 324.466267 
L 140.314603 325.397154 
L 146.711476 326.328042 
L 153.108348 327.25893 
L 159.505221 328.189818 
L 165.902094 329.120706 
L 172.298967 330.051594 
L 178.69584 330.982482 
L 185.092713 331.91337 
L 191.489586 332.844258 
L 197.886458 333.775146 
L 204.283331 334.706034 
L 210.680204 335.636922 
L 217.077077 336.56781 
L 223.47395 337.498698 
L 229.870823 338.429586 
L 236.267696 339.360474 
L 242.664568 340.291362 
L 249.061441 341.22225 
L 255.458314 342.153138 
L 261.855187 343.084026 
L 268.25206 344.014914 
L 274.648933 344.945802 
L 281.045806 345.87669 
L 287.442679 346.807578 
L 293.839551 347.738466 
L 300.236424 348.669354 
L 306.633297 349.600242 
L 313.03017 350.53113 
L 319.427043 351.462018 
L 325.823916 352.392906 
L 332.220789 353.323794 
L 338.617661 354.254682 
L 345.014534 355.18557 
L 351.411407 356.116458 
L 357.80828 357.047346 
L 364.205153 357.978233 
L 370.602026 358.909121 
L 376.998899 359.840009 
L 383.395772 360.770897 
" clip-path="url(#p7a1878c4a4)" style="fill: none; stroke: #00008b; stroke-width: 1.5; stroke-linecap: square"/>
   </g>
   <g id="line2d_43">
    <path d="M 69.949001 136.613074 
L 76.345874 139.313771 
L 82.742747 142.014467 
L 89.13962 144.715164 
L 95.536493 147.415861 
L 101.933365 150.116557 
L 108.330238 152.817254 
L 114.727111 155.517951 
L 121.123984 158.218647 
L 127.520857 160.919344 
L 133.91773 163.620041 
L 140.314603 166.320737 
L 146.711476 169.021434 
L 153.108348 171.722131 
L 159.505221 174.422827 
L 165.902094 177.123524 
L 172.298967 179.824221 
L 178.69584 182.524917 
L 185.092713 185.225614 
L 191.489586 187.926311 
L 197.886458 190.627007 
L 204.283331 193.327704 
L 210.680204 196.028401 
L 217.077077 198.729097 
L 223.47395 201.429794 
L 229.870823 204.130491 
L 236.267696 206.831187 
L 242.664568 209.531884 
L 249.061441 212.232581 
L 255.458314 214.933277 
L 261.855187 217.633974 
L 268.25206 220.334671 
L 274.648933 223.035367 
L 281.045806 225.736064 
L 287.442679 228.436761 
L 293.839551 231.137457 
L 300.236424 233.838154 
L 306.633297 236.538851 
L 313.03017 239.239547 
L 319.427043 241.940244 
L 325.823916 244.640941 
L 332.220789 247.341637 
L 338.617661 250.042334 
L 345.014534 252.743031 
L 351.411407 255.443727 
L 357.80828 258.144424 
L 364.205153 260.845121 
L 370.602026 263.545817 
L 376.998899 266.246514 
L 383.395772 268.947211 
L 389.792644 271.647907 
L 396.189517 274.348604 
L 402.58639 277.049301 
L 408.983263 279.749997 
L 415.380136 282.450694 
L 421.777009 285.151391 
L 428.173882 287.852087 
L 434.570754 290.552784 
L 440.967627 293.253481 
L 447.3645 295.954177 
L 453.761373 298.654874 
L 460.158246 301.355571 
L 466.555119 304.056267 
L 472.951992 306.756964 
L 479.348864 309.457661 
L 485.745737 312.158357 
L 492.14261 314.859054 
L 498.539483 317.559751 
L 504.936356 320.260447 
L 511.333229 322.961144 
L 517.730102 325.661841 
L 524.126975 328.362537 
L 530.523847 331.063234 
L 536.92072 333.763931 
L 543.317593 336.464627 
L 549.714466 339.165324 
L 556.111339 341.866021 
L 562.508212 344.566717 
L 568.905085 347.267414 
L 575.301957 349.968111 
L 581.69883 352.668807 
L 588.095703 355.369504 
L 594.492576 358.070201 
L 600.889449 360.770897 
" clip-path="url(#p7a1878c4a4)" style="fill: none; stroke-dasharray: 1.5,2.475; stroke-dashoffset: 0; stroke: #f08080; stroke-width: 1.5"/>
   </g>
   <g id="line2d_44">
    <path d="M 69.949001 136.613074 
L 76.345874 139.033383 
L 82.742747 141.453691 
L 89.13962 143.874 
L 95.536493 146.294309 
L 101.933365 148.714618 
L 108.330238 151.134926 
L 114.727111 153.555235 
L 121.123984 155.975544 
L 127.520857 158.395853 
L 133.91773 160.816161 
L 140.314603 163.23647 
L 146.711476 165.656779 
L 153.108348 168.077087 
L 159.505221 170.497396 
L 165.902094 172.917705 
L 172.298967 175.338014 
L 178.69584 177.758322 
L 185.092713 180.178631 
L 191.489586 182.59894 
L 197.886458 185.019248 
L 204.283331 187.439557 
L 210.680204 189.859866 
L 217.077077 192.280175 
L 223.47395 194.700483 
L 229.870823 197.120792 
L 236.267696 199.541101 
L 242.664568 201.96141 
L 249.061441 204.381718 
L 255.458314 206.802027 
L 261.855187 209.222336 
L 268.25206 211.642644 
L 274.648933 214.062953 
L 281.045806 216.483262 
L 287.442679 218.903571 
L 293.839551 221.323879 
L 300.236424 223.744188 
L 306.633297 226.164497 
L 313.03017 228.584806 
L 319.427043 231.005114 
L 325.823916 233.425423 
L 332.220789 235.845732 
L 338.617661 238.26604 
L 345.014534 240.686349 
L 351.411407 243.106658 
L 357.80828 245.526967 
L 364.205153 247.947275 
L 370.602026 250.367584 
L 376.998899 252.787893 
L 383.395772 255.208201 
L 389.792644 257.62851 
L 396.189517 260.048819 
L 402.58639 262.469128 
L 408.983263 264.889436 
L 415.380136 267.309745 
L 421.777009 269.730054 
L 428.173882 272.150363 
L 434.570754 274.570671 
L 440.967627 276.99098 
L 447.3645 279.411289 
L 453.761373 281.831597 
L 460.158246 284.251906 
L 466.555119 286.672215 
L 472.951992 289.092524 
L 479.348864 291.512832 
L 485.745737 293.933141 
L 492.14261 296.35345 
L 498.539483 298.773759 
L 504.936356 301.194067 
L 511.333229 303.614376 
L 517.730102 306.034685 
L 524.126975 308.454993 
L 530.523847 310.875302 
L 536.92072 313.295611 
L 543.317593 315.71592 
L 549.714466 318.136228 
L 556.111339 320.556537 
L 562.508212 322.976846 
L 568.905085 325.397154 
L 575.301957 327.817463 
L 581.69883 330.237772 
L 588.095703 332.658081 
L 594.492576 335.078389 
L 600.889449 337.498698 
L 607.286322 339.919007 
L 613.683195 342.339316 
L 620.080067 344.759624 
L 626.47694 347.179933 
L 632.873813 349.600242 
L 639.270686 352.02055 
L 645.667559 354.440859 
L 652.064432 356.861168 
L 658.461305 359.281477 
L 664.858178 360.770897 
" clip-path="url(#p7a1878c4a4)" style="fill: none; stroke: #ff0000; stroke-width: 1.5; stroke-linecap: square"/>
   </g>
   <g id="line2d_45">
    <path d="M 69.949001 281.273065 
L 76.345874 282.23087 
L 82.742747 283.188675 
L 89.13962 284.14648 
L 95.536493 285.104286 
L 101.933365 286.062091 
L 108.330238 287.019896 
L 114.727111 287.977701 
L 121.123984 288.935506 
L 127.520857 289.893312 
L 133.91773 290.851117 
L 140.314603 291.808922 
L 146.711476 292.766727 
L 153.108348 293.724532 
L 159.505221 294.682338 
L 165.902094 295.640143 
L 172.298967 296.597948 
L 178.69584 297.555753 
L 185.092713 298.513559 
L 191.489586 299.471364 
L 197.886458 300.429169 
L 204.283331 301.386974 
L 210.680204 302.344779 
L 217.077077 303.302585 
L 223.47395 304.26039 
L 229.870823 305.218195 
L 236.267696 306.176 
L 242.664568 307.133805 
L 249.061441 308.091611 
L 255.458314 309.049416 
L 261.855187 310.007221 
L 268.25206 310.965026 
L 274.648933 311.922832 
L 281.045806 312.880637 
L 287.442679 313.838442 
L 293.839551 314.796247 
L 300.236424 315.754052 
L 306.633297 316.711858 
L 313.03017 317.669663 
L 319.427043 318.627468 
L 325.823916 319.585273 
L 332.220789 320.543078 
L 338.617661 321.500884 
L 345.014534 322.458689 
L 351.411407 323.416494 
L 357.80828 324.374299 
L 364.205153 325.332104 
L 370.602026 326.28991 
L 376.998899 327.247715 
L 383.395772 328.20552 
L 389.792644 329.163325 
L 396.189517 330.121131 
L 402.58639 331.078936 
L 408.983263 332.036741 
L 415.380136 332.994546 
L 421.777009 333.952351 
L 428.173882 334.910157 
L 434.570754 335.867962 
L 440.967627 336.825767 
L 447.3645 337.783572 
L 453.761373 338.741377 
L 460.158246 339.699183 
L 466.555119 340.656988 
L 472.951992 341.614793 
L 479.348864 342.572598 
L 485.745737 343.530404 
L 492.14261 344.488209 
L 498.539483 345.446014 
L 504.936356 346.403819 
L 511.333229 347.361624 
L 517.730102 348.31943 
L 524.126975 349.277235 
L 530.523847 350.23504 
L 536.92072 351.192845 
L 543.317593 352.15065 
L 549.714466 353.108456 
L 556.111339 354.066261 
L 562.508212 355.024066 
L 568.905085 355.981871 
L 575.301957 356.939677 
L 581.69883 357.897482 
L 588.095703 358.855287 
L 594.492576 359.813092 
L 600.889449 360.770897 
" clip-path="url(#p7a1878c4a4)" style="fill: none; stroke-dasharray: 1.5,2.475; stroke-dashoffset: 0; stroke: #0000ff; stroke-width: 1.5"/>
   </g>
   <g id="line2d_46">
    <path d="M 69.949001 281.273065 
L 76.345874 282.669397 
L 82.742747 284.065729 
L 89.13962 285.462061 
L 95.536493 286.858393 
L 101.933365 288.254724 
L 108.330238 289.651056 
L 114.727111 291.047388 
L 121.123984 292.44372 
L 127.520857 293.840052 
L 133.91773 295.236384 
L 140.314603 296.632716 
L 146.711476 298.029048 
L 153.108348 299.42538 
L 159.505221 300.821712 
L 165.902094 302.218044 
L 172.298967 303.614376 
L 178.69584 305.010708 
L 185.092713 306.40704 
L 191.489586 307.803372 
L 197.886458 309.199704 
L 204.283331 310.596036 
L 210.680204 311.992368 
L 217.077077 313.3887 
L 223.47395 314.785032 
L 229.870823 316.181364 
L 236.267696 317.577696 
L 242.664568 318.974027 
L 249.061441 320.370359 
L 255.458314 321.766691 
L 261.855187 323.163023 
L 268.25206 324.559355 
L 274.648933 325.955687 
L 281.045806 327.352019 
L 287.442679 328.748351 
L 293.839551 330.144683 
L 300.236424 331.541015 
L 306.633297 332.937347 
L 313.03017 334.333679 
L 319.427043 335.730011 
L 325.823916 337.126343 
L 332.220789 338.522675 
L 338.617661 339.919007 
L 345.014534 341.315339 
L 351.411407 342.711671 
L 357.80828 344.108003 
L 364.205153 345.504335 
L 370.602026 346.900667 
L 376.998899 348.296999 
L 383.395772 349.693331 
L 389.792644 351.089662 
L 396.189517 352.485994 
L 402.58639 353.882326 
L 408.983263 355.278658 
L 415.380136 356.67499 
L 421.777009 358.071322 
L 428.173882 359.467654 
L 434.570754 360.770897 
" clip-path="url(#p7a1878c4a4)" style="fill: none; stroke: #00008b; stroke-width: 1.5; stroke-linecap: square"/>
   </g>
   <g id="line2d_47">
    <path d="M 69.949001 42.779567 
L 76.345874 46.610787 
L 82.742747 50.442008 
L 89.13962 54.273229 
L 95.536493 58.10445 
L 101.933365 61.935671 
L 108.330238 65.766892 
L 114.727111 69.598113 
L 121.123984 73.429333 
L 127.520857 77.260554 
L 133.91773 81.091775 
L 140.314603 84.922996 
L 146.711476 88.754217 
L 153.108348 92.585438 
L 159.505221 96.416658 
L 165.902094 100.247879 
L 172.298967 104.0791 
L 178.69584 107.910321 
L 185.092713 111.741542 
L 191.489586 115.572763 
L 197.886458 119.403984 
L 204.283331 123.235204 
L 210.680204 127.066425 
L 217.077077 130.897646 
L 223.47395 134.728867 
L 229.870823 138.560088 
L 236.267696 142.391309 
L 242.664568 146.22253 
L 249.061441 150.05375 
L 255.458314 153.884971 
L 261.855187 157.716192 
L 268.25206 161.547413 
L 274.648933 165.378634 
L 281.045806 169.209855 
L 287.442679 173.041076 
L 293.839551 176.872296 
L 300.236424 180.703517 
L 306.633297 184.534738 
L 313.03017 188.365959 
L 319.427043 192.19718 
L 325.823916 196.028401 
L 332.220789 199.859622 
L 338.617661 203.690842 
L 345.014534 207.522063 
L 351.411407 211.353284 
L 357.80828 215.184505 
L 364.205153 219.015726 
L 370.602026 222.846947 
L 376.998899 226.678168 
L 383.395772 230.509388 
L 389.792644 234.340609 
L 396.189517 238.17183 
L 402.58639 242.003051 
L 408.983263 245.834272 
L 415.380136 249.665493 
L 421.777009 253.496713 
L 428.173882 257.327934 
L 434.570754 261.159155 
L 440.967627 264.990376 
L 447.3645 268.821597 
L 453.761373 272.652818 
L 460.158246 276.484039 
L 466.555119 280.315259 
L 472.951992 284.14648 
L 479.348864 287.977701 
L 485.745737 291.808922 
L 492.14261 295.640143 
L 498.539483 299.471364 
L 504.936356 303.302585 
L 511.333229 307.133805 
L 517.730102 310.965026 
L 524.126975 314.796247 
L 530.523847 318.627468 
L 536.92072 322.458689 
L 543.317593 326.28991 
L 549.714466 330.121131 
L 556.111339 333.952351 
L 562.508212 337.783572 
L 568.905085 341.614793 
L 575.301957 345.446014 
L 581.69883 349.277235 
L 588.095703 353.108456 
L 594.492576 356.939677 
L 600.889449 360.770897 
" clip-path="url(#p7a1878c4a4)" style="fill: none; stroke-dasharray: 1.5,2.475; stroke-dashoffset: 0; stroke: #f08080; stroke-width: 1.5"/>
   </g>
   <g id="line2d_48">
    <path d="M 69.949001 42.779567 
L 76.345874 47.061651 
L 82.742747 51.343736 
L 89.13962 55.625821 
L 95.536493 59.907905 
L 101.933365 64.18999 
L 108.330238 68.472075 
L 114.727111 72.754159 
L 121.123984 77.036244 
L 127.520857 81.318329 
L 133.91773 85.600413 
L 140.314603 89.882498 
L 146.711476 94.164583 
L 153.108348 98.446667 
L 159.505221 102.728752 
L 165.902094 107.010837 
L 172.298967 111.292921 
L 178.69584 115.575006 
L 185.092713 119.857091 
L 191.489586 124.139175 
L 197.886458 128.42126 
L 204.283331 132.703345 
L 210.680204 136.985429 
L 217.077077 141.267514 
L 223.47395 145.549599 
L 229.870823 149.831683 
L 236.267696 154.113768 
L 242.664568 158.395853 
L 249.061441 162.677937 
L 255.458314 166.960022 
L 261.855187 171.242107 
L 268.25206 175.524191 
L 274.648933 179.806276 
L 281.045806 184.088361 
L 287.442679 188.370445 
L 293.839551 192.65253 
L 300.236424 196.934615 
L 306.633297 201.216699 
L 313.03017 205.498784 
L 319.427043 209.780869 
L 325.823916 214.062953 
L 332.220789 218.345038 
L 338.617661 222.627123 
L 345.014534 226.909207 
L 351.411407 231.191292 
L 357.80828 235.473377 
L 364.205153 239.755461 
L 370.602026 244.037546 
L 376.998899 248.319631 
L 383.395772 252.601715 
L 389.792644 256.8838 
L 396.189517 261.165885 
L 402.58639 265.447969 
L 408.983263 269.730054 
L 415.380136 274.012139 
L 421.777009 278.294223 
L 428.173882 282.576308 
L 434.570754 286.858393 
L 440.967627 291.140477 
L 447.3645 295.422562 
L 453.761373 299.704646 
L 460.158246 303.986731 
L 466.555119 308.268816 
L 472.951992 312.5509 
L 479.348864 316.832985 
L 485.745737 321.11507 
L 492.14261 325.397154 
L 498.539483 329.679239 
L 504.936356 333.961324 
L 511.333229 338.243408 
L 517.730102 342.525493 
L 524.126975 346.807578 
L 530.523847 351.089662 
L 536.92072 355.371747 
L 543.317593 359.653832 
L 549.714466 360.770897 
" clip-path="url(#p7a1878c4a4)" style="fill: none; stroke: #ff0000; stroke-width: 1.5; stroke-linecap: square"/>
   </g>
   <g id="line2d_49">
    <path d="M 600.889449 376.670464 
L 600.889449 26.88 
" clip-path="url(#p7a1878c4a4)" style="fill: none; stroke-dasharray: 3.7,1.6; stroke-dashoffset: 0; stroke: #ff00ff"/>
   </g>
   <g id="line2d_50">
    <path d="M 600.889449 376.670464 
L 600.889449 26.88 
" clip-path="url(#p7a1878c4a4)" style="fill: none; stroke-dasharray: 3.7,1.6; stroke-dashoffset: 0; stroke: #ff00ff"/>
   </g>
   <g id="patch_7">
    <path d="M 40.203542 376.670464 
L 40.203542 26.88 
" style="fill: none; stroke: #000000; stroke-width: 0.8; stroke-linejoin: miter; stroke-linecap: square"/>
   </g>
   <g id="patch_8">
    <path d="M 694.603636 376.670464 
L 694.603636 26.88 
" style="fill: none; stroke: #000000; stroke-width: 0.8; stroke-linejoin: miter; stroke-linecap: square"/>
   </g>
   <g id="patch_9">
    <path d="M 40.203542 376.670464 
L 694.603636 376.670464 
" style="fill: none; stroke: #000000; stroke-width: 0.8; stroke-linejoin: miter; stroke-linecap: square"/>
   </g>
   <g id="patch_10">
    <path d="M 40.203542 26.88 
L 694.603636 26.88 
" style="fill: none; stroke: #000000; stroke-width: 0.8; stroke-linejoin: miter; stroke-linecap: square"/>
   </g>
   <g id="text_21">
    <!-- (Team A) -->
    <g style="fill: #0000ff" transform="translate(600.799278 371.106302) scale(0.09 -0.09)">
     <defs>
      <path id="DejaVuSans-28" d="M 1984 4856 
Q 1566 4138 1362 3434 
Q 1159 2731 1159 2009 
Q 1159 1288 1364 580 
Q 1569 -128 1984 -844 
L 1484 -844 
Q 1016 -109 783 600 
Q 550 1309 550 2009 
Q 550 2706 781 3412 
Q 1013 4119 1484 4856 
L 1984 4856 
z
" transform="scale(0.015625)"/>
      <path id="DejaVuSans-54" d="M -19 4666 
L 3928 4666 
L 3928 4134 
L 2272 4134 
L 2272 0 
L 1638 0 
L 1638 4134 
L -19 4134 
L -19 4666 
z
" transform="scale(0.015625)"/>
      <path id="DejaVuSans-65" d="M 3597 1894 
L 3597 1613 
L 953 1613 
Q 991 1019 1311 708 
Q 1631 397 2203 397 
Q 2534 397 2845 478 
Q 3156 559 3463 722 
L 3463 178 
Q 3153 47 2828 -22 
Q 2503 -91 2169 -91 
Q 1331 -91 842 396 
Q 353 884 353 1716 
Q 353 2575 817 3079 
Q 1281 3584 2069 3584 
Q 2775 3584 3186 3129 
Q 3597 2675 3597 1894 
z
M 3022 2063 
Q 3016 2534 2758 2815 
Q 2500 3097 2075 3097 
Q 1594 3097 1305 2825 
Q 1016 2553 972 2059 
L 3022 2063 
z
" transform="scale(0.015625)"/>
      <path id="DejaVuSans-61" d="M 2194 1759 
Q 1497 1759 1228 1600 
Q 959 1441 959 1056 
Q 959 750 1161 570 
Q 1363 391 1709 391 
Q 2188 391 2477 730 
Q 2766 1069 2766 1631 
L 2766 1759 
L 2194 1759 
z
M 3341 1997 
L 3341 0 
L 2766 0 
L 2766 531 
Q 2569 213 2275 61 
Q 1981 -91 1556 -91 
Q 1019 -91 701 211 
Q 384 513 384 1019 
Q 384 1609 779 1909 
Q 1175 2209 1959 2209 
L 2766 2209 
L 2766 2266 
Q 2766 2663 2505 2880 
Q 2244 3097 1772 3097 
Q 1472 3097 1187 3025 
Q 903 2953 641 2809 
L 641 3341 
Q 956 3463 1253 3523 
Q 1550 3584 1831 3584 
Q 2591 3584 2966 3190 
Q 3341 2797 3341 1997 
z
" transform="scale(0.015625)"/>
      <path id="DejaVuSans-6d" d="M 3328 2828 
Q 3544 3216 3844 3400 
Q 4144 3584 4550 3584 
Q 5097 3584 5394 3201 
Q 5691 2819 5691 2113 
L 5691 0 
L 5113 0 
L 5113 2094 
Q 5113 2597 4934 2840 
Q 4756 3084 4391 3084 
Q 3944 3084 3684 2787 
Q 3425 2491 3425 1978 
L 3425 0 
L 2847 0 
L 2847 2094 
Q 2847 2600 2669 2842 
Q 2491 3084 2119 3084 
Q 1678 3084 1418 2786 
Q 1159 2488 1159 1978 
L 1159 0 
L 581 0 
L 581 3500 
L 1159 3500 
L 1159 2956 
Q 1356 3278 1631 3431 
Q 1906 3584 2284 3584 
Q 2666 3584 2933 3390 
Q 3200 3197 3328 2828 
z
" transform="scale(0.015625)"/>
      <path id="DejaVuSans-20" transform="scale(0.015625)"/>
      <path id="DejaVuSans-41" d="M 2188 4044 
L 1331 1722 
L 3047 1722 
L 2188 4044 
z
M 1831 4666 
L 2547 4666 
L 4325 0 
L 3669 0 
L 3244 1197 
L 1141 1197 
L 716 0 
L 50 0 
L 1831 4666 
z
" transform="scale(0.015625)"/>
      <path id="DejaVuSans-29" d="M 513 4856 
L 1013 4856 
Q 1481 4119 1714 3412 
Q 1947 2706 1947 2009 
Q 1947 1309 1714 600 
Q 1481 -109 1013 -844 
L 513 -844 
Q 928 -128 1133 580 
Q 1338 1288 1338 2009 
Q 1338 2731 1133 3434 
Q 928 4138 513 4856 
z
" transform="scale(0.015625)"/>
     </defs>
     <use xlink:href="#DejaVuSans-28"/>
     <use xlink:href="#DejaVuSans-54" transform="translate(39.013672 0)"/>
     <use xlink:href="#DejaVuSans-65" transform="translate(83.097656 0)"/>
     <use xlink:href="#DejaVuSans-61" transform="translate(144.621094 0)"/>
     <use xlink:href="#DejaVuSans-6d" transform="translate(205.900391 0)"/>
     <use xlink:href="#DejaVuSans-20" transform="translate(303.3125 0)"/>
     <use xlink:href="#DejaVuSans-41" transform="translate(335.099609 0)"/>
     <use xlink:href="#DejaVuSans-29" transform="translate(403.507812 0)"/>
    </g>
   </g>
   <g id="text_22">
    <!-- (Team A) -->
    <g style="fill: #00008b" transform="translate(384.902568 365.414335) scale(0.09 -0.09)">
     <use xlink:href="#DejaVuSans-28"/>
     <use xlink:href="#DejaVuSans-54" transform="translate(39.013672 0)"/>
     <use xlink:href="#DejaVuSans-65" transform="translate(83.097656 0)"/>
     <use xlink:href="#DejaVuSans-61" transform="translate(144.621094 0)"/>
     <use xlink:href="#DejaVuSans-6d" transform="translate(205.900391 0)"/>
     <use xlink:href="#DejaVuSans-20" transform="translate(303.3125 0)"/>
     <use xlink:href="#DejaVuSans-41" transform="translate(335.099609 0)"/>
     <use xlink:href="#DejaVuSans-29" transform="translate(403.507812 0)"/>
    </g>
   </g>
   <g id="text_23">
    <!-- (Team A) -->
    <g style="fill: #f08080" transform="translate(620.036372 359.628812) scale(0.09 -0.09)">
     <use xlink:href="#DejaVuSans-28"/>
     <use xlink:href="#DejaVuSans-54" transform="translate(39.013672 0)"/>
     <use xlink:href="#DejaVuSans-65" transform="translate(83.097656 0)"/>
     <use xlink:href="#DejaVuSans-61" transform="translate(144.621094 0)"/>
     <use xlink:href="#DejaVuSans-6d" transform="translate(205.900391 0)"/>
     <use xlink:href="#DejaVuSans-20" transform="translate(303.3125 0)"/>
     <use xlink:href="#DejaVuSans-41" transform="translate(335.099609 0)"/>
     <use xlink:href="#DejaVuSans-29" transform="translate(403.507812 0)"/>
    </g>
   </g>
   <g id="text_24">
    <!-- (Team A) -->
    <g style="fill: #ff0000" transform="translate(654.710433 372.614335) scale(0.09 -0.09)">
     <use xlink:href="#DejaVuSans-28"/>
     <use xlink:href="#DejaVuSans-54" transform="translate(39.013672 0)"/>
     <use xlink:href="#DejaVuSans-65" transform="translate(83.097656 0)"/>
     <use xlink:href="#DejaVuSans-61" transform="translate(144.621094 0)"/>
     <use xlink:href="#DejaVuSans-6d" transform="translate(205.900391 0)"/>
     <use xlink:href="#DejaVuSans-20" transform="translate(303.3125 0)"/>
     <use xlink:href="#DejaVuSans-41" transform="translate(335.099609 0)"/>
     <use xlink:href="#DejaVuSans-29" transform="translate(403.507812 0)"/>
    </g>
   </g>
   <g id="text_25">
    <!-- (Team B) -->
    <g style="fill: #0000ff" transform="translate(612.176575 339.002323) scale(0.09 -0.09)">
     <defs>
      <path id="DejaVuSans-42" d="M 1259 2228 
L 1259 519 
L 2272 519 
Q 2781 519 3026 730 
Q 3272 941 3272 1375 
Q 3272 1813 3026 2020 
Q 2781 2228 2272 2228 
L 1259 2228 
z
M 1259 4147 
L 1259 2741 
L 2194 2741 
Q 2656 2741 2882 2914 
Q 3109 3088 3109 3444 
Q 3109 3797 2882 3972 
Q 2656 4147 2194 4147 
L 1259 4147 
z
M 628 4666 
L 2241 4666 
Q 2963 4666 3353 4366 
Q 3744 4066 3744 3513 
Q 3744 3084 3544 2831 
Q 3344 2578 2956 2516 
Q 3422 2416 3680 2098 
Q 3938 1781 3938 1306 
Q 3938 681 3513 340 
Q 3088 0 2303 0 
L 628 0 
L 628 4666 
z
" transform="scale(0.015625)"/>
     </defs>
     <use xlink:href="#DejaVuSans-28"/>
     <use xlink:href="#DejaVuSans-54" transform="translate(39.013672 0)"/>
     <use xlink:href="#DejaVuSans-65" transform="translate(83.097656 0)"/>
     <use xlink:href="#DejaVuSans-61" transform="translate(144.621094 0)"/>
     <use xlink:href="#DejaVuSans-6d" transform="translate(205.900391 0)"/>
     <use xlink:href="#DejaVuSans-20" transform="translate(303.3125 0)"/>
     <use xlink:href="#DejaVuSans-42" transform="translate(335.099609 0)"/>
     <use xlink:href="#DejaVuSans-29" transform="translate(403.703125 0)"/>
    </g>
   </g>
   <g id="text_26">
    <!-- (Team B) -->
    <g style="fill: #00008b" transform="translate(436.113411 364.694335) scale(0.09 -0.09)">
     <use xlink:href="#DejaVuSans-28"/>
     <use xlink:href="#DejaVuSans-54" transform="translate(39.013672 0)"/>
     <use xlink:href="#DejaVuSans-65" transform="translate(83.097656 0)"/>
     <use xlink:href="#DejaVuSans-61" transform="translate(144.621094 0)"/>
     <use xlink:href="#DejaVuSans-6d" transform="translate(205.900391 0)"/>
     <use xlink:href="#DejaVuSans-20" transform="translate(303.3125 0)"/>
     <use xlink:href="#DejaVuSans-42" transform="translate(335.099609 0)"/>
     <use xlink:href="#DejaVuSans-29" transform="translate(403.703125 0)"/>
    </g>
   </g>
   <g id="text_27">
    <!-- (Team B) -->
    <g style="fill: #f08080" transform="translate(574.394362 352.910925) scale(0.09 -0.09)">
     <use xlink:href="#DejaVuSans-28"/>
     <use xlink:href="#DejaVuSans-54" transform="translate(39.013672 0)"/>
     <use xlink:href="#DejaVuSans-65" transform="translate(83.097656 0)"/>
     <use xlink:href="#DejaVuSans-61" transform="translate(144.621094 0)"/>
     <use xlink:href="#DejaVuSans-6d" transform="translate(205.900391 0)"/>
     <use xlink:href="#DejaVuSans-20" transform="translate(303.3125 0)"/>
     <use xlink:href="#DejaVuSans-42" transform="translate(335.099609 0)"/>
     <use xlink:href="#DejaVuSans-29" transform="translate(403.703125 0)"/>
    </g>
   </g>
   <g id="text_28">
    <!-- (Team B) -->
    <g style="fill: #ff0000" transform="translate(549.817122 368.294335) scale(0.09 -0.09)">
     <use xlink:href="#DejaVuSans-28"/>
     <use xlink:href="#DejaVuSans-54" transform="translate(39.013672 0)"/>
     <use xlink:href="#DejaVuSans-65" transform="translate(83.097656 0)"/>
     <use xlink:href="#DejaVuSans-61" transform="translate(144.621094 0)"/>
     <use xlink:href="#DejaVuSans-6d" transform="translate(205.900391 0)"/>
     <use xlink:href="#DejaVuSans-20" transform="translate(303.3125 0)"/>
     <use xlink:href="#DejaVuSans-42" transform="translate(335.099609 0)"/>
     <use xlink:href="#DejaVuSans-29" transform="translate(403.703125 0)"/>
    </g>
   </g>
   <g id="text_29">
    <!-- Project Burndowns For 2025-03-07 -->
    <g transform="translate(263.518277 20.88) scale(0.12 -0.12)">
     <defs>
      <path id="DejaVuSans-50" d="M 1259 4147 
L 1259 2394 
L 2053 2394 
Q 2494 2394 2734 2622 
Q 2975 2850 2975 3272 
Q 2975 3691 2734 3919 
Q 2494 4147 2053 4147 
L 1259 4147 
z
M 628 4666 
L 2053 4666 
Q 2838 4666 3239 4311 
Q 3641 3956 3641 3272 
Q 3641 2581 3239 2228 
Q 2838 1875 2053 1875 
L 1259 1875 
L 1259 0 
L 628 0 
L 628 4666 
z
" transform="scale(0.015625)"/>
      <path id="DejaVuSans-72" d="M 2631 2963 
Q 2534 3019 2420 3045 
Q 2306 3072 2169 3072 
Q 1681 3072 1420 2755 
Q 1159 2438 1159 1844 
L 1159 0 
L 581 0 
L 581 3500 
L 1159 3500 
L 1159 2956 
Q 1341 3275 1631 3429 
Q 1922 3584 2338 3584 
Q 2397 3584 2469 3576 
Q 2541 3569 2628 3553 
L 2631 2963 
z
" transform="scale(0.015625)"/>
      <path id="DejaVuSans-6f" d="M 1959 3097 
Q 1497 3097 1228 2736 
Q 959 2375 959 1747 
Q 959 1119 1226 758 
Q 1494 397 1959 397 
Q 2419 397 2687 759 
Q 2956 1122 2956 1747 
Q 2956 2369 2687 2733 
Q 2419 3097 1959 3097 
z
M 1959 3584 
Q 2709 3584 3137 3096 
Q 3566 2609 3566 1747 
Q 3566 888 3137 398 
Q 2709 -91 1959 -91 
Q 1206 -91 779 398 
Q 353 888 353 1747 
Q 353 2609 779 3096 
Q 1206 3584 1959 3584 
z
" transform="scale(0.015625)"/>
      <path id="DejaVuSans-6a" d="M 603 3500 
L 1178 3500 
L 1178 -63 
Q 1178 -731 923 -1031 
Q 669 -1331 103 -1331 
L -116 -1331 
L -116 -844 
L 38 -844 
Q 366 -844 484 -692 
Q 603 -541 603 -63 
L 603 3500 
z
M 603 4863 
L 1178 4863 
L 1178 4134 
L 603 4134 
L 603 4863 
z
" transform="scale(0.015625)"/>
      <path id="DejaVuSans-63" d="M 3122 3366 
L 3122 2828 
Q 2878 2963 2633 3030 
Q 2388 3097 2138 3097 
Q 1578 3097 1268 2742 
Q 959 2388 959 1747 
Q 959 1106 1268 751 
Q 1578 397 2138 397 
Q 2388 397 2633 464 
Q 2878 531 3122 666 
L 3122 134 
Q 2881 22 2623 -34 
Q 2366 -91 2075 -91 
Q 1284 -91 818 406 
Q 353 903 353 1747 
Q 353 2603 823 3093 
Q 1294 3584 2113 3584 
Q 2378 3584 2631 3529 
Q 2884 3475 3122 3366 
z
" transform="scale(0.015625)"/>
      <path id="DejaVuSans-74" d="M 1172 4494 
L 1172 3500 
L 2356 3500 
L 2356 3053 
L 1172 3053 
L 1172 1153 
Q 1172 725 1289 603 
Q 1406 481 1766 481 
L 2356 481 
L 2356 0 
L 1766 0 
Q 1100 0 847 248 
Q 594 497 594 1153 
L 594 3053 
L 172 3053 
L 172 3500 
L 594 3500 
L 594 4494 
L 1172 4494 
z
" transform="scale(0.015625)"/>
      <path id="DejaVuSans-75" d="M 544 1381 
L 544 3500 
L 1119 3500 
L 1119 1403 
Q 1119 906 1312 657 
Q 1506 409 1894 409 
Q 2359 409 2629 706 
Q 2900 1003 2900 1516 
L 2900 3500 
L 3475 3500 
L 3475 0 
L 2900 0 
L 2900 538 
Q 2691 219 2414 64 
Q 2138 -91 1772 -91 
Q 1169 -91 856 284 
Q 544 659 544 1381 
z
M 1991 3584 
L 1991 3584 
z
" transform="scale(0.015625)"/>
      <path id="DejaVuSans-6e" d="M 3513 2113 
L 3513 0 
L 2938 0 
L 2938 2094 
Q 2938 2591 2744 2837 
Q 2550 3084 2163 3084 
Q 1697 3084 1428 2787 
Q 1159 2491 1159 1978 
L 1159 0 
L 581 0 
L 581 3500 
L 1159 3500 
L 1159 2956 
Q 1366 3272 1645 3428 
Q 1925 3584 2291 3584 
Q 2894 3584 3203 3211 
Q 3513 2838 3513 2113 
z
" transform="scale(0.015625)"/>
      <path id="DejaVuSans-64" d="M 2906 2969 
L 2906 4863 
L 3481 4863 
L 3481 0 
L 2906 0 
L 2906 525 
Q 2725 213 2448 61 
Q 2172 -91 1784 -91 
Q 1150 -91 751 415 
Q 353 922 353 1747 
Q 353 2572 751 3078 
Q 1150 3584 1784 3584 
Q 2172 3584 2448 3432 
Q 2725 3281 2906 2969 
z
M 947 1747 
Q 947 1113 1208 752 
Q 1469 391 1925 391 
Q 2381 391 2643 752 
Q 2906 1113 2906 1747 
Q 2906 2381 2643 2742 
Q 2381 3103 1925 3103 
Q 1469 3103 1208 2742 
Q 947 2381 947 1747 
z
" transform="scale(0.015625)"/>
      <path id="DejaVuSans-77" d="M 269 3500 
L 844 3500 
L 1563 769 
L 2278 3500 
L 2956 3500 
L 3675 769 
L 4391 3500 
L 4966 3500 
L 4050 0 
L 3372 0 
L 2619 2869 
L 1863 0 
L 1184 0 
L 269 3500 
z
" transform="scale(0.015625)"/>
      <path id="DejaVuSans-73" d="M 2834 3397 
L 2834 2853 
Q 2591 2978 2328 3040 
Q 2066 3103 1784 3103 
Q 1356 3103 1142 2972 
Q 928 2841 928 2578 
Q 928 2378 1081 2264 
Q 1234 2150 1697 2047 
L 1894 2003 
Q 2506 1872 2764 1633 
Q 3022 1394 3022 966 
Q 3022 478 2636 193 
Q 2250 -91 1575 -91 
Q 1294 -91 989 -36 
Q 684 19 347 128 
L 347 722 
Q 666 556 975 473 
Q 1284 391 1588 391 
Q 1994 391 2212 530 
Q 2431 669 2431 922 
Q 2431 1156 2273 1281 
Q 2116 1406 1581 1522 
L 1381 1569 
Q 847 1681 609 1914 
Q 372 2147 372 2553 
Q 372 3047 722 3315 
Q 1072 3584 1716 3584 
Q 2034 3584 2315 3537 
Q 2597 3491 2834 3397 
z
" transform="scale(0.015625)"/>
      <path id="DejaVuSans-46" d="M 628 4666 
L 3309 4666 
L 3309 4134 
L 1259 4134 
L 1259 2759 
L 3109 2759 
L 3109 2228 
L 1259 2228 
L 1259 0 
L 628 0 
L 628 4666 
z
" transform="scale(0.015625)"/>
     </defs>
     <use xlink:href="#DejaVuSans-50"/>
     <use xlink:href="#DejaVuSans-72" transform="translate(58.552734 0)"/>
     <use xlink:href="#DejaVuSans-6f" transform="translate(97.416016 0)"/>
     <use xlink:href="#DejaVuSans-6a" transform="translate(158.597656 0)"/>
     <use xlink:href="#DejaVuSans-65" transform="translate(186.380859 0)"/>
     <use xlink:href="#DejaVuSans-63" transform="translate(247.904297 0)"/>
     <use xlink:href="#DejaVuSans-74" transform="translate(302.884766 0)"/>
     <use xlink:href="#DejaVuSans-20" transform="translate(342.09375 0)"/>
     <use xlink:href="#DejaVuSans-42" transform="translate(373.880859 0)"/>
     <use xlink:href="#DejaVuSans-75" transform="translate(442.484375 0)"/>
     <use xlink:href="#DejaVuSans-72" transform="translate(505.863281 0)"/>
     <use xlink:href="#DejaVuSans-6e" transform="translate(545.226562 0)"/>
     <use xlink:href="#DejaVuSans-64" transform="translate(608.605469 0)"/>
     <use xlink:href="#DejaVuSans-6f" transform="translate(672.082031 0)"/>
     <use xlink:href="#DejaVuSans-77" transform="translate(733.263672 0)"/>
     <use xlink:href="#DejaVuSans-6e" transform="translate(815.050781 0)"/>
     <use xlink:href="#DejaVuSans-73" transform="translate(878.429688 0)"/>
     <use xlink:href="#DejaVuSans-20" transform="translate(930.529297 0)"/>
     <use xlink:href="#DejaVuSans-46" transform="translate(962.316406 0)"/>
     <use xlink:href="#DejaVuSans-6f" transform="translate(1016.210938 0)"/>
     <use xlink:href="#DejaVuSans-72" transform="translate(1077.392578 0)"/>
     <use xlink:href="#DejaVuSans-20" transform="translate(1118.505859 0)"/>
     <use xlink:href="#DejaVuSans-32" transform="translate(1150.292969 0)"/>
     <use xlink:href="#DejaVuSans-30" transform="translate(1213.916016 0)"/>
     <use xlink:href="#DejaVuSans-32" transform="translate(1277.539062 0)"/>
     <use xlink:href="#DejaVuSans-35" transform="translate(1341.162109 0)"/>
     <use xlink:href="#DejaVuSans-2d" transform="translate(1404.785156 0)"/>
     <use xlink:href="#DejaVuSans-30" transform="translate(1440.869141 0)"/>
     <use xlink:href="#DejaVuSans-33" transform="translate(1504.492188 0)"/>
     <use xlink:href="#DejaVuSans-2d" transform="translate(1568.115234 0)"/>
     <use xlink:href="#DejaVuSans-30" transform="translate(1604.199219 0)"/>
     <use xlink:href="#DejaVuSans-37" transform="translate(1667.822266 0)"/>
    </g>
   </g>
   <g id="legend_1">
    <g id="patch_11">
     <path d="M 515.567699 152.305 
L 687.603636 152.305 
Q 689.603636 152.305 689.603636 150.305 
L 689.603636 33.88 
Q 689.603636 31.88 687.603636 31.88 
L 515.567699 31.88 
Q 513.567699 31.88 513.567699 33.88 
L 513.567699 150.305 
Q 513.567699 152.305 515.567699 152.305 
z
" style="fill: #ffffff; opacity: 0.8; stroke: #cccccc; stroke-linejoin: miter"/>
    </g>
    <g id="line2d_51">
     <path d="M 517.567699 39.978438 
L 527.567699 39.978438 
L 537.567699 39.978438 
" style="fill: none; stroke-dasharray: 1.5,2.475; stroke-dashoffset: 0; stroke: #0000ff; stroke-width: 1.5"/>
    </g>
    <g id="text_30">
     <!-- Ideal Throughput (Team A) -->
     <g transform="translate(545.567699 43.478438) scale(0.1 -0.1)">
      <defs>
       <path id="DejaVuSans-49" d="M 628 4666 
L 1259 4666 
L 1259 0 
L 628 0 
L 628 4666 
z
" transform="scale(0.015625)"/>
       <path id="DejaVuSans-6c" d="M 603 4863 
L 1178 4863 
L 1178 0 
L 603 0 
L 603 4863 
z
" transform="scale(0.015625)"/>
       <path id="DejaVuSans-68" d="M 3513 2113 
L 3513 0 
L 2938 0 
L 2938 2094 
Q 2938 2591 2744 2837 
Q 2550 3084 2163 3084 
Q 1697 3084 1428 2787 
Q 1159 2491 1159 1978 
L 1159 0 
L 581 0 
L 581 4863 
L 1159 4863 
L 1159 2956 
Q 1366 3272 1645 3428 
Q 1925 3584 2291 3584 
Q 2894 3584 3203 3211 
Q 3513 2838 3513 2113 
z
" transform="scale(0.015625)"/>
       <path id="DejaVuSans-67" d="M 2906 1791 
Q 2906 2416 2648 2759 
Q 2391 3103 1925 3103 
Q 1463 3103 1205 2759 
Q 947 2416 947 1791 
Q 947 1169 1205 825 
Q 1463 481 1925 481 
Q 2391 481 2648 825 
Q 2906 1169 2906 1791 
z
M 3481 434 
Q 3481 -459 3084 -895 
Q 2688 -1331 1869 -1331 
Q 1566 -1331 1297 -1286 
Q 1028 -1241 775 -1147 
L 775 -588 
Q 1028 -725 1275 -790 
Q 1522 -856 1778 -856 
Q 2344 -856 2625 -561 
Q 2906 -266 2906 331 
L 2906 616 
Q 2728 306 2450 153 
Q 2172 0 1784 0 
Q 1141 0 747 490 
Q 353 981 353 1791 
Q 353 2603 747 3093 
Q 1141 3584 1784 3584 
Q 2172 3584 2450 3431 
Q 2728 3278 2906 2969 
L 2906 3500 
L 3481 3500 
L 3481 434 
z
" transform="scale(0.015625)"/>
       <path id="DejaVuSans-70" d="M 1159 525 
L 1159 -1331 
L 581 -1331 
L 581 3500 
L 1159 3500 
L 1159 2969 
Q 1341 3281 1617 3432 
Q 1894 3584 2278 3584 
Q 2916 3584 3314 3078 
Q 3713 2572 3713 1747 
Q 3713 922 3314 415 
Q 2916 -91 2278 -91 
Q 1894 -91 1617 61 
Q 1341 213 1159 525 
z
M 3116 1747 
Q 3116 2381 2855 2742 
Q 2594 3103 2138 3103 
Q 1681 3103 1420 2742 
Q 1159 2381 1159 1747 
Q 1159 1113 1420 752 
Q 1681 391 2138 391 
Q 2594 391 2855 752 
Q 3116 1113 3116 1747 
z
" transform="scale(0.015625)"/>
      </defs>
      <use xlink:href="#DejaVuSans-49"/>
      <use xlink:href="#DejaVuSans-64" transform="translate(29.492188 0)"/>
      <use xlink:href="#DejaVuSans-65" transform="translate(92.96875 0)"/>
      <use xlink:href="#DejaVuSans-61" transform="translate(154.492188 0)"/>
      <use xlink:href="#DejaVuSans-6c" transform="translate(215.771484 0)"/>
      <use xlink:href="#DejaVuSans-20" transform="translate(243.554688 0)"/>
      <use xlink:href="#DejaVuSans-54" transform="translate(275.341797 0)"/>
      <use xlink:href="#DejaVuSans-68" transform="translate(336.425781 0)"/>
      <use xlink:href="#DejaVuSans-72" transform="translate(399.804688 0)"/>
      <use xlink:href="#DejaVuSans-6f" transform="translate(438.667969 0)"/>
      <use xlink:href="#DejaVuSans-75" transform="translate(499.849609 0)"/>
      <use xlink:href="#DejaVuSans-67" transform="translate(563.228516 0)"/>
      <use xlink:href="#DejaVuSans-68" transform="translate(626.705078 0)"/>
      <use xlink:href="#DejaVuSans-70" transform="translate(690.083984 0)"/>
      <use xlink:href="#DejaVuSans-75" transform="translate(753.560547 0)"/>
      <use xlink:href="#DejaVuSans-74" transform="translate(816.939453 0)"/>
      <use xlink:href="#DejaVuSans-20" transform="translate(856.148438 0)"/>
      <use xlink:href="#DejaVuSans-28" transform="translate(887.935547 0)"/>
      <use xlink:href="#DejaVuSans-54" transform="translate(926.949219 0)"/>
      <use xlink:href="#DejaVuSans-65" transform="translate(971.033203 0)"/>
      <use xlink:href="#DejaVuSans-61" transform="translate(1032.556641 0)"/>
      <use xlink:href="#DejaVuSans-6d" transform="translate(1093.835938 0)"/>
      <use xlink:href="#DejaVuSans-20" transform="translate(1191.248047 0)"/>
      <use xlink:href="#DejaVuSans-41" transform="translate(1223.035156 0)"/>
      <use xlink:href="#DejaVuSans-29" transform="translate(1291.443359 0)"/>
     </g>
    </g>
    <g id="line2d_52">
     <path d="M 517.567699 54.656563 
L 527.567699 54.656563 
L 537.567699 54.656563 
" style="fill: none; stroke: #00008b; stroke-width: 1.5; stroke-linecap: square"/>
    </g>
    <g id="text_31">
     <!-- Actual Throughput (Team A) -->
     <g transform="translate(545.567699 58.156563) scale(0.1 -0.1)">
      <use xlink:href="#DejaVuSans-41"/>
      <use xlink:href="#DejaVuSans-63" transform="translate(66.658203 0)"/>
      <use xlink:href="#DejaVuSans-74" transform="translate(121.638672 0)"/>
      <use xlink:href="#DejaVuSans-75" transform="translate(160.847656 0)"/>
      <use xlink:href="#DejaVuSans-61" transform="translate(224.226562 0)"/>
      <use xlink:href="#DejaVuSans-6c" transform="translate(285.505859 0)"/>
      <use xlink:href="#DejaVuSans-20" transform="translate(313.289062 0)"/>
      <use xlink:href="#DejaVuSans-54" transform="translate(345.076172 0)"/>
      <use xlink:href="#DejaVuSans-68" transform="translate(406.160156 0)"/>
      <use xlink:href="#DejaVuSans-72" transform="translate(469.539062 0)"/>
      <use xlink:href="#DejaVuSans-6f" transform="translate(508.402344 0)"/>
      <use xlink:href="#DejaVuSans-75" transform="translate(569.583984 0)"/>
      <use xlink:href="#DejaVuSans-67" transform="translate(632.962891 0)"/>
      <use xlink:href="#DejaVuSans-68" transform="translate(696.439453 0)"/>
      <use xlink:href="#DejaVuSans-70" transform="translate(759.818359 0)"/>
      <use xlink:href="#DejaVuSans-75" transform="translate(823.294922 0)"/>
      <use xlink:href="#DejaVuSans-74" transform="translate(886.673828 0)"/>
      <use xlink:href="#DejaVuSans-20" transform="translate(925.882812 0)"/>
      <use xlink:href="#DejaVuSans-28" transform="translate(957.669922 0)"/>
      <use xlink:href="#DejaVuSans-54" transform="translate(996.683594 0)"/>
      <use xlink:href="#DejaVuSans-65" transform="translate(1040.767578 0)"/>
      <use xlink:href="#DejaVuSans-61" transform="translate(1102.291016 0)"/>
      <use xlink:href="#DejaVuSans-6d" transform="translate(1163.570312 0)"/>
      <use xlink:href="#DejaVuSans-20" transform="translate(1260.982422 0)"/>
      <use xlink:href="#DejaVuSans-41" transform="translate(1292.769531 0)"/>
      <use xlink:href="#DejaVuSans-29" transform="translate(1361.177734 0)"/>
     </g>
    </g>
    <g id="line2d_53">
     <path d="M 517.567699 69.334688 
L 527.567699 69.334688 
L 537.567699 69.334688 
" style="fill: none; stroke-dasharray: 1.5,2.475; stroke-dashoffset: 0; stroke: #f08080; stroke-width: 1.5"/>
    </g>
    <g id="text_32">
     <!-- Ideal Velocity (Team A) -->
     <g transform="translate(545.567699 72.834688) scale(0.1 -0.1)">
      <defs>
       <path id="DejaVuSans-56" d="M 1831 0 
L 50 4666 
L 709 4666 
L 2188 738 
L 3669 4666 
L 4325 4666 
L 2547 0 
L 1831 0 
z
" transform="scale(0.015625)"/>
       <path id="DejaVuSans-69" d="M 603 3500 
L 1178 3500 
L 1178 0 
L 603 0 
L 603 3500 
z
M 603 4863 
L 1178 4863 
L 1178 4134 
L 603 4134 
L 603 4863 
z
" transform="scale(0.015625)"/>
       <path id="DejaVuSans-79" d="M 2059 -325 
Q 1816 -950 1584 -1140 
Q 1353 -1331 966 -1331 
L 506 -1331 
L 506 -850 
L 844 -850 
Q 1081 -850 1212 -737 
Q 1344 -625 1503 -206 
L 1606 56 
L 191 3500 
L 800 3500 
L 1894 763 
L 2988 3500 
L 3597 3500 
L 2059 -325 
z
" transform="scale(0.015625)"/>
      </defs>
      <use xlink:href="#DejaVuSans-49"/>
      <use xlink:href="#DejaVuSans-64" transform="translate(29.492188 0)"/>
      <use xlink:href="#DejaVuSans-65" transform="translate(92.96875 0)"/>
      <use xlink:href="#DejaVuSans-61" transform="translate(154.492188 0)"/>
      <use xlink:href="#DejaVuSans-6c" transform="translate(215.771484 0)"/>
      <use xlink:href="#DejaVuSans-20" transform="translate(243.554688 0)"/>
      <use xlink:href="#DejaVuSans-56" transform="translate(275.341797 0)"/>
      <use xlink:href="#DejaVuSans-65" transform="translate(336 0)"/>
      <use xlink:href="#DejaVuSans-6c" transform="translate(397.523438 0)"/>
      <use xlink:href="#DejaVuSans-6f" transform="translate(425.306641 0)"/>
      <use xlink:href="#DejaVuSans-63" transform="translate(486.488281 0)"/>
      <use xlink:href="#DejaVuSans-69" transform="translate(541.46875 0)"/>
      <use xlink:href="#DejaVuSans-74" transform="translate(569.251953 0)"/>
      <use xlink:href="#DejaVuSans-79" transform="translate(608.460938 0)"/>
      <use xlink:href="#DejaVuSans-20" transform="translate(667.640625 0)"/>
      <use xlink:href="#DejaVuSans-28" transform="translate(699.427734 0)"/>
      <use xlink:href="#DejaVuSans-54" transform="translate(738.441406 0)"/>
      <use xlink:href="#DejaVuSans-65" transform="translate(782.525391 0)"/>
      <use xlink:href="#DejaVuSans-61" transform="translate(844.048828 0)"/>
      <use xlink:href="#DejaVuSans-6d" transform="translate(905.328125 0)"/>
      <use xlink:href="#DejaVuSans-20" transform="translate(1002.740234 0)"/>
      <use xlink:href="#DejaVuSans-41" transform="translate(1034.527344 0)"/>
      <use xlink:href="#DejaVuSans-29" transform="translate(1102.935547 0)"/>
     </g>
    </g>
    <g id="line2d_54">
     <path d="M 517.567699 84.012813 
L 527.567699 84.012813 
L 537.567699 84.012813 
" style="fill: none; stroke: #ff0000; stroke-width: 1.5; stroke-linecap: square"/>
    </g>
    <g id="text_33">
     <!-- Actual Velocity (Team A) -->
     <g transform="translate(545.567699 87.512813) scale(0.1 -0.1)">
      <use xlink:href="#DejaVuSans-41"/>
      <use xlink:href="#DejaVuSans-63" transform="translate(66.658203 0)"/>
      <use xlink:href="#DejaVuSans-74" transform="translate(121.638672 0)"/>
      <use xlink:href="#DejaVuSans-75" transform="translate(160.847656 0)"/>
      <use xlink:href="#DejaVuSans-61" transform="translate(224.226562 0)"/>
      <use xlink:href="#DejaVuSans-6c" transform="translate(285.505859 0)"/>
      <use xlink:href="#DejaVuSans-20" transform="translate(313.289062 0)"/>
      <use xlink:href="#DejaVuSans-56" transform="translate(345.076172 0)"/>
      <use xlink:href="#DejaVuSans-65" transform="translate(405.734375 0)"/>
      <use xlink:href="#DejaVuSans-6c" transform="translate(467.257812 0)"/>
      <use xlink:href="#DejaVuSans-6f" transform="translate(495.041016 0)"/>
      <use xlink:href="#DejaVuSans-63" transform="translate(556.222656 0)"/>
      <use xlink:href="#DejaVuSans-69" transform="translate(611.203125 0)"/>
      <use xlink:href="#DejaVuSans-74" transform="translate(638.986328 0)"/>
      <use xlink:href="#DejaVuSans-79" transform="translate(678.195312 0)"/>
      <use xlink:href="#DejaVuSans-20" transform="translate(737.375 0)"/>
      <use xlink:href="#DejaVuSans-28" transform="translate(769.162109 0)"/>
      <use xlink:href="#DejaVuSans-54" transform="translate(808.175781 0)"/>
      <use xlink:href="#DejaVuSans-65" transform="translate(852.259766 0)"/>
      <use xlink:href="#DejaVuSans-61" transform="translate(913.783203 0)"/>
      <use xlink:href="#DejaVuSans-6d" transform="translate(975.0625 0)"/>
      <use xlink:href="#DejaVuSans-20" transform="translate(1072.474609 0)"/>
      <use xlink:href="#DejaVuSans-41" transform="translate(1104.261719 0)"/>
      <use xlink:href="#DejaVuSans-29" transform="translate(1172.669922 0)"/>
     </g>
    </g>
    <g id="line2d_55">
     <path d="M 517.567699 98.690938 
L 527.567699 98.690938 
L 537.567699 98.690938 
" style="fill: none; stroke-dasharray: 1.5,2.475; stroke-dashoffset: 0; stroke: #0000ff; stroke-width: 1.5"/>
    </g>
    <g id="text_34">
     <!-- Ideal Throughput (Team B) -->
     <g transform="translate(545.567699 102.190938) scale(0.1 -0.1)">
      <use xlink:href="#DejaVuSans-49"/>
      <use xlink:href="#DejaVuSans-64" transform="translate(29.492188 0)"/>
      <use xlink:href="#DejaVuSans-65" transform="translate(92.96875 0)"/>
      <use xlink:href="#DejaVuSans-61" transform="translate(154.492188 0)"/>
      <use xlink:href="#DejaVuSans-6c" transform="translate(215.771484 0)"/>
      <use xlink:href="#DejaVuSans-20" transform="translate(243.554688 0)"/>
      <use xlink:href="#DejaVuSans-54" transform="translate(275.341797 0)"/>
      <use xlink:href="#DejaVuSans-68" transform="translate(336.425781 0)"/>
      <use xlink:href="#DejaVuSans-72" transform="translate(399.804688 0)"/>
      <use xlink:href="#DejaVuSans-6f" transform="translate(438.667969 0)"/>
      <use xlink:href="#DejaVuSans-75" transform="translate(499.849609 0)"/>
      <use xlink:href="#DejaVuSans-67" transform="translate(563.228516 0)"/>
      <use xlink:href="#DejaVuSans-68" transform="translate(626.705078 0)"/>
      <use xlink:href="#DejaVuSans-70" transform="translate(690.083984 0)"/>
      <use xlink:href="#DejaVuSans-75" transform="translate(753.560547 0)"/>
      <use xlink:href="#DejaVuSans-74" transform="translate(816.939453 0)"/>
      <use xlink:href="#DejaVuSans-20" transform="translate(856.148438 0)"/>
      <use xlink:href="#DejaVuSans-28" transform="translate(887.935547 0)"/>
      <use xlink:href="#DejaVuSans-54" transform="translate(926.949219 0)"/>
      <use xlink:href="#DejaVuSans-65" transform="translate(971.033203 0)"/>
      <use xlink:href="#DejaVuSans-61" transform="translate(1032.556641 0)"/>
      <use xlink:href="#DejaVuSans-6d" transform="translate(1093.835938 0)"/>
      <use xlink:href="#DejaVuSans-20" transform="translate(1191.248047 0)"/>
      <use xlink:href="#DejaVuSans-42" transform="translate(1223.035156 0)"/>
      <use xlink:href="#DejaVuSans-29" transform="translate(1291.638672 0)"/>
     </g>
    </g>
    <g id="line2d_56">
     <path d="M 517.567699 113.369063 
L 527.567699 113.369063 
L 537.567699 113.369063 
" style="fill: none; stroke: #00008b; stroke-width: 1.5; stroke-linecap: square"/>
    </g>
    <g id="text_35">
     <!-- Actual Throughput (Team B) -->
     <g transform="translate(545.567699 116.869063) scale(0.1 -0.1)">
      <use xlink:href="#DejaVuSans-41"/>
      <use xlink:href="#DejaVuSans-63" transform="translate(66.658203 0)"/>
      <use xlink:href="#DejaVuSans-74" transform="translate(121.638672 0)"/>
      <use xlink:href="#DejaVuSans-75" transform="translate(160.847656 0)"/>
      <use xlink:href="#DejaVuSans-61" transform="translate(224.226562 0)"/>
      <use xlink:href="#DejaVuSans-6c" transform="translate(285.505859 0)"/>
      <use xlink:href="#DejaVuSans-20" transform="translate(313.289062 0)"/>
      <use xlink:href="#DejaVuSans-54" transform="translate(345.076172 0)"/>
      <use xlink:href="#DejaVuSans-68" transform="translate(406.160156 0)"/>
      <use xlink:href="#DejaVuSans-72" transform="translate(469.539062 0)"/>
      <use xlink:href="#DejaVuSans-6f" transform="translate(508.402344 0)"/>
      <use xlink:href="#DejaVuSans-75" transform="translate(569.583984 0)"/>
      <use xlink:href="#DejaVuSans-67" transform="translate(632.962891 0)"/>
      <use xlink:href="#DejaVuSans-68" transform="translate(696.439453 0)"/>
      <use xlink:href="#DejaVuSans-70" transform="translate(759.818359 0)"/>
      <use xlink:href="#DejaVuSans-75" transform="translate(823.294922 0)"/>
      <use xlink:href="#DejaVuSans-74" transform="translate(886.673828 0)"/>
      <use xlink:href="#DejaVuSans-20" transform="translate(925.882812 0)"/>
      <use xlink:href="#DejaVuSans-28" transform="translate(957.669922 0)"/>
      <use xlink:href="#DejaVuSans-54" transform="translate(996.683594 0)"/>
      <use xlink:href="#DejaVuSans-65" transform="translate(1040.767578 0)"/>
      <use xlink:href="#DejaVuSans-61" transform="translate(1102.291016 0)"/>
      <use xlink:href="#DejaVuSans-6d" transform="translate(1163.570312 0)"/>
      <use xlink:href="#DejaVuSans-20" transform="translate(1260.982422 0)"/>
      <use xlink:href="#DejaVuSans-42" transform="translate(1292.769531 0)"/>
      <use xlink:href="#DejaVuSans-29" transform="translate(1361.373047 0)"/>
     </g>
    </g>
    <g id="line2d_57">
     <path d="M 517.567699 128.047188 
L 527.567699 128.047188 
L 537.567699 128.047188 
" style="fill: none; stroke-dasharray: 1.5,2.475; stroke-dashoffset: 0; stroke: #f08080; stroke-width: 1.5"/>
    </g>
    <g id="text_36">
     <!-- Ideal Velocity (Team B) -->
     <g transform="translate(545.567699 131.547188) scale(0.1 -0.1)">
      <use xlink:href="#DejaVuSans-49"/>
      <use xlink:href="#DejaVuSans-64" transform="translate(29.492188 0)"/>
      <use xlink:href="#DejaVuSans-65" transform="translate(92.96875 0)"/>
      <use xlink:href="#DejaVuSans-61" transform="translate(154.492188 0)"/>
      <use xlink:href="#DejaVuSans-6c" transform="translate(215.771484 0)"/>
      <use xlink:href="#DejaVuSans-20" transform="translate(243.554688 0)"/>
      <use xlink:href="#DejaVuSans-56" transform="translate(275.341797 0)"/>
      <use xlink:href="#DejaVuSans-65" transform="translate(336 0)"/>
      <use xlink:href="#DejaVuSans-6c" transform="translate(397.523438 0)"/>
      <use xlink:href="#DejaVuSans-6f" transform="translate(425.306641 0)"/>
      <use xlink:href="#DejaVuSans-63" transform="translate(486.488281 0)"/>
      <use xlink:href="#DejaVuSans-69" transform="translate(541.46875 0)"/>
      <use xlink:href="#DejaVuSans-74" transform="translate(569.251953 0)"/>
      <use xlink:href="#DejaVuSans-79" transform="translate(608.460938 0)"/>
      <use xlink:href="#DejaVuSans-20" transform="translate(667.640625 0)"/>
      <use xlink:href="#DejaVuSans-28" transform="translate(699.427734 0)"/>
      <use xlink:href="#DejaVuSans-54" transform="translate(738.441406 0)"/>
      <use xlink:href="#DejaVuSans-65" transform="translate(782.525391 0)"/>
      <use xlink:href="#DejaVuSans-61" transform="translate(844.048828 0)"/>
      <use xlink:href="#DejaVuSans-6d" transform="translate(905.328125 0)"/>
      <use xlink:href="#DejaVuSans-20" transform="translate(1002.740234 0)"/>
      <use xlink:href="#DejaVuSans-42" transform="translate(1034.527344 0)"/>
      <use xlink:href="#DejaVuSans-29" transform="translate(1103.130859 0)"/>
     </g>
    </g>
    <g id="line2d_58">
     <path d="M 517.567699 142.725313 
L 527.567699 142.725313 
L 537.567699 142.725313 
" style="fill: none; stroke: #ff0000; stroke-width: 1.5; stroke-linecap: square"/>
    </g>
    <g id="text_37">
     <!-- Actual Velocity (Team B) -->
     <g transform="translate(545.567699 146.225313) scale(0.1 -0.1)">
      <use xlink:href="#DejaVuSans-41"/>
      <use xlink:href="#DejaVuSans-63" transform="translate(66.658203 0)"/>
      <use xlink:href="#DejaVuSans-74" transform="translate(121.638672 0)"/>
      <use xlink:href="#DejaVuSans-75" transform="translate(160.847656 0)"/>
      <use xlink:href="#DejaVuSans-61" transform="translate(224.226562 0)"/>
      <use xlink:href="#DejaVuSans-6c" transform="translate(285.505859 0)"/>
      <use xlink:href="#DejaVuSans-20" transform="translate(313.289062 0)"/>
      <use xlink:href="#DejaVuSans-56" transform="translate(345.076172 0)"/>
      <use xlink:href="#DejaVuSans-65" transform="translate(405.734375 0)"/>
      <use xlink:href="#DejaVuSans-6c" transform="translate(467.257812 0)"/>
      <use xlink:href="#DejaVuSans-6f" transform="translate(495.041016 0)"/>
      <use xlink:href="#DejaVuSans-63" transform="translate(556.222656 0)"/>
      <use xlink:href="#DejaVuSans-69" transform="translate(611.203125 0)"/>
      <use xlink:href="#DejaVuSans-74" transform="translate(638.986328 0)"/>
      <use xlink:href="#DejaVuSans-79" transform="translate(678.195312 0)"/>
      <use xlink:href="#DejaVuSans-20" transform="translate(737.375 0)"/>
      <use xlink:href="#DejaVuSans-28" transform="translate(769.162109 0)"/>
      <use xlink:href="#DejaVuSans-54" transform="translate(808.175781 0)"/>
      <use xlink:href="#DejaVuSans-65" transform="translate(852.259766 0)"/>
      <use xlink:href="#DejaVuSans-61" transform="translate(913.783203 0)"/>
      <use xlink:href="#DejaVuSans-6d" transform="translate(975.0625 0)"/>
      <use xlink:href="#DejaVuSans-20" transform="translate(1072.474609 0)"/>
      <use xlink:href="#DejaVuSans-42" transform="translate(1104.261719 0)"/>
      <use xlink:href="#DejaVuSans-29" transform="translate(1172.865234 0)"/>
     </g>
    </g>
   </g>
  </g>
 </g>
 <defs>
  <clipPath id="p7a1878c4a4">
   <rect x="40.203542" y="26.88" width="654.400094" height="349.790464"/>
  </clipPath>
 </defs>
</svg>
